<svg id="Capa_1" data-name="Capa 1" xmlns="http://www.w3.org/2000/svg" viewBox="0 0 1500 1500"><defs><style>.cls-1{fill:#fff;}.cls-2,.cls-3{fill:#e8cc00;}.cls-2{stroke:#000;stroke-miterlimit:10;stroke-width:2px;}.cls-4{font-size:72.07px;}.cls-4,.cls-5{font-family:BebasNeueBold, Bebas Neue;}.cls-5{font-size:23.34px;}</style></defs><title>Birredon logo</title><rect class="cls-1" width="1500" height="1500"/><path d="M725.22,337.06a3,3,0,0,1,3.32,4,3,3,0,0,1-1,1.34c1.72,4.1,2.89,7,2.89,7s9.09-6.1,30.65-7,35,7.84,35,7.84.83-3.81,2.3-9.25a3,3,0,0,1-2.84.38,3,3,0,0,1,2.18-5.58,2.87,2.87,0,0,1,1.66,1.63c2.62-9.13,6.57-21,11.17-28.18-3.68-2.24-15.34,1.5-22.3,11.92.1-2.12-5-14.05-5-14.05s-3.78,2.81-10,10.56c-.06-1.92-9.8-22.89-13.13-22.59S748.2,317,748.2,317c-1.31-2.13-9.46-8-9.46-8s-2.41,2-6.72,13.72c-2.8-2.44-12.77-9.83-17.57-7.15C716,316.29,721.18,327.7,725.22,337.06Zm54.37-4.19a3,3,0,1,1,1.69,3.89A3,3,0,0,1,779.59,332.87ZM757.32,332a3,3,0,1,1,1.69,3.89A3,3,0,0,1,757.32,332ZM734,335.64a3,3,0,1,1,1.7,3.88A3,3,0,0,1,734,335.64Z"/><path d="M761.42,343.68c-19.16-.17-28,7.45-31,10.89a3.85,3.85,0,0,0-.82,3.76c1.64,4.87,7.61,7.84,22.36,10.16,16.75,2.64,28.45-1.89,34.28-3.54S797,357.73,796,354.21,786.16,343.92,761.42,343.68Zm1.34,21.61c-16.6,1-30.28-1.81-30.57-6.33s12.95-9,29.54-10,30.28,1.78,30.57,6.3S779.35,364.24,762.76,365.29Z"/><path d="M1198.79,890.36l.75.52c.06-.56.11-1.13.17-1.7C1199.11,889.92,1198.79,890.36,1198.79,890.36Z"/><path class="cls-2" d="M1174.84,812.84c-14.75-2.65-28.14,4.62-28.14,4.62a50.21,50.21,0,0,0,10.75,13.48,104.31,104.31,0,0,1,11.19.58c6.78.76,12.11,2.23,16.66,4.62a29.34,29.34,0,0,1,4.94,3.13,51.13,51.13,0,0,0,11.53-4.51c-7.15-13.86-16.69-19.75-25.84-21.7C1175.55,813,1175.18,812.92,1174.84,812.84Z"/><path class="cls-2" d="M972.2,468.42l-.17.27,11.12,8,1.44,1.06c-24.91-9.35-43.48,13.51-43.48,13.51s30.21,26.19,56.48-3.88q8.29,6.19,16.49,12.5c-24.33-8.07-42.22,14.1-42.22,14.1s29.86,25.68,55.87-3.42q6.72,5.34,13.35,10.78c-21.49-6.62-39.24,11.18-39.24,11.18s26.87,28.6,55.76,2.65q4.58,3.93,9.1,7.91c-18.64-4.33-34.85,9-34.85,9s23.52,30.5,54.34,8.71q5.7,5.42,11.2,11c-19.28-9-39,4.16-39,4.16s21.08,33.73,54.87,13c.14.16.29.32.43.49,4.15,4.82,8.19,9.74,12,14.8-19.81-17.66-45.36-3.13-45.36-3.13s18.9,35.87,54.77,16.51c3.16,4.88,6.17,9.88,9.14,14.89l.11.19c-18.33-17.1-43.57-5.19-43.57-5.19s15.82,36.47,52.29,21.07c1.27,2.44,2.52,4.9,3.73,7.38,1.46,2.95,2.84,5.94,4.2,8.95-16.56-16.77-41.39-8-41.39-8s11.89,37.34,49.09,26.47q3.23,8.31,6.07,16.75c-16.49-19.32-43.13-9.9-43.13-9.9s11.77,37,48.53,26.64q2.12,6.9,4.13,13.82c.44,1.5.87,3,1.3,4.5-16.29-22.11-44.81-12-44.81-12s11.84,37.19,48.85,26.54c2,7.63,3.91,15.3,5.54,23-17.42-29.87-50.45-15-50.45-15s15.13,36.75,51.87,22c.14.77.3,1.54.44,2.32a194.24,194.24,0,0,1,3.11,23.74c-18-33.81-52.89-16.64-52.89-16.64s16.55,36.54,53.11,20c.54,8.57,1.14,17.13,1.94,25.68h.31c.6.19,1.2.38,1.79.54l.5-.44a25.42,25.42,0,0,1,3.39-3.33,23.67,23.67,0,0,1,20.21-4.68h.14c.32,0,.63.08,1,.13,1,.14,2.31.32,3.94.52,2.13.29,4.45.66,7,1.14h0a49.28,49.28,0,0,0,13.29-20.47S1215.67,795.62,1203,834c.33-8.45.47-16.88.57-25.31,39.72,2.93,42.89-36.85,42.89-36.85s-34.56-3.86-42.94,27.79c-.25-6.09-.91-12.16-1.74-18.18-.09-.68-.21-1.37-.32-2.06,38.17-4.94,34.28-43.76,34.28-43.76s-31.24,2.12-36.67,30.18c-.72-3.59-1.48-7.17-2.34-10.73q-.79-3.43-1.68-6.87C1232.61,737,1222,699,1222,699s-29.65,7.26-30.91,35c-.49-1.6-1-3.21-1.49-4.8-1.39-4.25-2.79-8.49-4.38-12.67l-.56-1.45c37.71-15,22.54-52.43,22.54-52.43s-31.89,11.74-26.2,42.94l-.6-1.55q-4.32-10.77-9.12-21.31l0,0a55.88,55.88,0,0,0-2.36-6,57.91,57.91,0,0,0,2.77,5.22c35.74-21,14.15-56,14.15-56s-31.23,17.93-17.55,49.4a42.73,42.73,0,0,0-2.1-3.75c-.66-1.45-1.32-2.91-2-4.37-1.85-4.05-3.8-8.05-5.7-12.08-1.18-2.48-2.4-5-3.63-7.41,34.39-23.06,10.87-56.62,10.87-56.62s-25.72,16.81-17.44,43.53c-.58-1.14-1.14-2.28-1.73-3.41q-3.08-5.94-6.33-11.79c-.81-1.47-1.65-2.94-2.49-4.42,29.88-26,4.1-56.22,4.1-56.22s-20.25,16.18-15.2,38.82c-2.83-4-5.78-7.88-8.86-11.66a2.43,2.43,0,0,0-.2-.25c24.35-30.3-5.71-55.57-5.71-55.57s-15.89,17.75-9.53,38.15q-4.65-5-9.45-9.8c24.84-29.85-4.75-55.63-4.75-55.63s-19,20.41-8.28,43q-8.79-8.1-18-15.76c22.59-30.44-7.52-54.64-7.52-54.64s-18.07,21.06-6.65,43.2c-2.62-2-5.24-4.1-7.89-6.11-3-2.26-5.94-4.46-8.94-6.64,23.39-30.72-7.07-55.22-7.07-55.22s-20.25,23.59-4.35,47.07q-9.95-6.9-20.15-13.45c22.61-33-10.35-55.71-10.35-55.71S969,456,990.78,478.9l-.59-.37L984.3,475c-3.94-2.34-7.9-4.66-11.94-6.83l-.16.26c-18.31-42.95-60.39-23.91-60.39-23.91S929.44,487.2,972.2,468.42Z"/><path class="cls-3" d="M887.53,847.52a50.23,50.23,0,0,1,15.79-2.91,71.15,71.15,0,0,1,25.89,4l.68.24q1.4-2.8,2.79-5.5c4.51-8.79,8.3-16.06,11.57-22.23,3.8-7.53,7.49-14.57,11-20.87a23.72,23.72,0,0,1,26.06-11.63h.1c.33,0,.66.06,1,.11,1,.16,2.31.33,3.92.54,2.18.28,4.77.71,8,1.31.35.06.7.13,1,.21,2.11.49,4,1,5.76,1.51-15.85-26.12-49.3-73.42-81.85-128.69a49.32,49.32,0,0,1-5.87,7c11,19.14,52.57,91.33,63.25,102.87-18.46-14.11-65.71-79.76-75.15-93a160.11,160.11,0,0,1-15.69,9.7,7.26,7.26,0,0,1,.59,1.44,7,7,0,0,1-13,5c-32.84,15.8-69.51,25.95-69.51,25.95s46,92.56,65.49,135.69l.68-.6c.19-.17.4-.33.6-.49,1.35-1.07,2.71-2.1,4.08-3l-36.11-88,12.53-3.46Zm22.92-130.75a1.67,1.67,0,1,1-1.16,2.05A1.67,1.67,0,0,1,910.45,716.77Zm-4.9,14.1a1.64,1.64,0,0,1,2,1.15,1.67,1.67,0,0,1-1.16,2.06,1.69,1.69,0,0,1-2-1.17A1.65,1.65,0,0,1,905.55,730.87Zm-9.17-35.7a2.35,2.35,0,1,1-1.64,2.89A2.33,2.33,0,0,1,896.38,695.17Zm-3.81,10.73a3.52,3.52,0,1,1-2.45,4.33A3.52,3.52,0,0,1,892.57,705.9Zm-5.72,14a1.67,1.67,0,1,1-1.15,2A1.65,1.65,0,0,1,886.85,719.85Zm-50.74,36.22-5.3-11.33,10.94-4.37L847.39,753Z"/><path d="M858.63,583.07a12.08,12.08,0,0,1,1.29,1.29c.44.46.79,1,1.31,1.49a8.82,8.82,0,0,0-.3-2,8,8,0,0,0-4.07-4.79,8.58,8.58,0,0,0-4.19-.85,7.74,7.74,0,0,0-3.92,1.23,21.52,21.52,0,0,1,7.06,1.72A11.58,11.58,0,0,1,858.63,583.07Z"/><path d="M841.84,647.53l.38.08a24.71,24.71,0,0,0,15.79-2,22.44,22.44,0,0,0,3.51-2.15,23.1,23.1,0,0,0,3-2.77c-1.35.34-2.53.89-3.8,1.24s-2.45.8-3.68,1.09a49.54,49.54,0,0,1-7.36,1.43,2.21,2.21,0,0,1-.35,0h0a49.6,49.6,0,0,1-7.13.32,73,73,0,0,1-7.79-.56A18.84,18.84,0,0,0,841.84,647.53Z"/><path d="M802.62,622.18a11.16,11.16,0,0,1,5.32-5.62,18.82,18.82,0,0,1,1.82-.86c.62-.28,1.26-.41,1.88-.63a12.66,12.66,0,0,1,3.7-.3,10.4,10.4,0,0,1,3.46,1.08,13.42,13.42,0,0,1,1.6,1c.23.19.49.38.71.6a8,8,0,0,1,.58.57l.33.31a2.19,2.19,0,0,0,.35.27,2.1,2.1,0,0,0,2.91-.66,9.23,9.23,0,0,1,.63-.81c.24-.28.51-.55.78-.82a8.94,8.94,0,0,1,1.75-1.34,7.31,7.31,0,0,1,2-.83,6.1,6.1,0,0,1,1-.17c.37,0,.81-.05,1.2-.05a13.45,13.45,0,0,1,4.84,1,8.42,8.42,0,0,1,4,3.19,7.74,7.74,0,0,0-3.08-4.74A13.4,13.4,0,0,0,833,610.9a11.71,11.71,0,0,0-1.48-.24,9.21,9.21,0,0,0-1.66,0,10.12,10.12,0,0,0-3.18.8,13.42,13.42,0,0,0-2.75,1.66l-.47.38-.22-.19a14.32,14.32,0,0,0-2.23-1.55,13.88,13.88,0,0,0-5.25-1.63,15.17,15.17,0,0,0-5.39.62,18.51,18.51,0,0,0-4.63,2.29,12.57,12.57,0,0,0-2,1.65,9.07,9.07,0,0,0-.93.93l-.81,1.06a11.36,11.36,0,0,0-2,4.8,13.44,13.44,0,0,0,2,9.37A16.54,16.54,0,0,1,802.62,622.18Z"/><path class="cls-3" d="M655.1,859.28c18.78-43.8,58.27-128.51,58.27-128.51s-35.72-8.93-67.88-23.44a6.77,6.77,0,0,1-12.72-4.48,5.81,5.81,0,0,1,.54-1.41,152.06,152.06,0,0,1-15.43-9c-8.77,13-53,77.72-70.5,91.82,10-11.41,48.61-82.32,58.76-101.08a47.81,47.81,0,0,1-5.85-6.62c-41.59,74.75-85.17,134.93-84.8,145.92a13.88,13.88,0,0,0,.22,2.15l1.34.33a23.67,23.67,0,0,1,18,24.79c8.49,6.12,20.14,12.13,35.72,17.2l2.51.82a23.77,23.77,0,0,1,13.47-5.15l.32,0c1.42-.08,3.09-.08,8.28.15a62,62,0,0,1,15.85,2.81A38.25,38.25,0,0,1,623.59,872c.41-.63.8-1.26,1.21-1.89a23.22,23.22,0,0,1,6.66-6.73l37.12-92.62,12.2,3.05-32.62,85.44C650.69,859.23,653,859.23,655.1,859.28ZM611.18,729.7a1.61,1.61,0,1,1-1.17-2A1.61,1.61,0,0,1,611.18,729.7Zm5.09,13.53a1.61,1.61,0,1,1-1.17-2A1.62,1.62,0,0,1,616.27,743.23ZM622,710.92a2.28,2.28,0,1,1,2.76-1.66A2.29,2.29,0,0,1,622,710.92Zm7.5,10a3.4,3.4,0,1,1-2.46-4.13A3.38,3.38,0,0,1,629.51,720.93Zm4.59,11.19a1.62,1.62,0,0,1-2,1.16,1.61,1.61,0,0,1,.77-3.12A1.63,1.63,0,0,1,634.1,732.12Zm37.82,29.12,5.15-12.31,10.68,4L682.9,764Z"/><path d="M657,597.12a10.05,10.05,0,0,1,2.65-1.93,21.27,21.27,0,0,1,6.78-1.87,7.29,7.29,0,0,0-3.82-1.13,8.18,8.18,0,0,0-4,.91,7.56,7.56,0,0,0-3.84,4.76,8.37,8.37,0,0,0-.22,2c.49-.49.82-1,1.24-1.45A11.63,11.63,0,0,1,657,597.12Z"/><path d="M678.21,627.41a12.89,12.89,0,0,1,4.64-1c.38,0,.81,0,1.17,0a4.82,4.82,0,0,1,1,.14,7.28,7.28,0,0,1,1.89.74,10.37,10.37,0,0,1,1.73,1.27c.25.25.52.5.76.77a7.2,7.2,0,0,1,.61.76,1.93,1.93,0,0,0,.29.35,2.12,2.12,0,0,0,3,0l.33-.35c.11-.09.35-.36.55-.55s.45-.39.68-.6a14.94,14.94,0,0,1,1.5-1,9.74,9.74,0,0,1,3.31-1.11,11.57,11.57,0,0,1,3.55.19c.6.2,1.22.31,1.82.55s1.25.46,1.79.79a10.85,10.85,0,0,1,5.26,5.26,15.93,15.93,0,0,1,.88,8.35,12.94,12.94,0,0,0,1.71-9.12,11.11,11.11,0,0,0-2-4.63l-.8-1c-.29-.32-.6-.59-.92-.89a12.52,12.52,0,0,0-2-1.55,17.66,17.66,0,0,0-4.55-2.11,14.45,14.45,0,0,0-5.26-.48A13.22,13.22,0,0,0,694,623.9a13,13,0,0,0-2.13,1.55c-.07,0-.11.11-.18.16l-.41-.31a13,13,0,0,0-2.72-1.55,10.2,10.2,0,0,0-3.11-.7,8.62,8.62,0,0,0-1.61.05,11.42,11.42,0,0,0-1.46.28,12.82,12.82,0,0,0-5.15,2.5,7.41,7.41,0,0,0-2.84,4.68A8.16,8.16,0,0,1,678.21,627.41Z"/><path d="M753.47,696.92l.88-.17h0a12.3,12.3,0,0,0,3.11-.81,11.29,11.29,0,0,0,1.25-.51l0,0a14.76,14.76,0,0,0,3.19-2,11.33,11.33,0,0,0,1.18-1.12,15.13,15.13,0,0,0,1.14-1.28,17,17,0,0,0,3.37-7.7,5.87,5.87,0,0,0,.08-.72,16,16,0,0,0-.67-7.37c-.3,1.44-.63,2.82-1,4.14-.31,1.11-.68,2.2-1.07,3.24a25.08,25.08,0,0,1-2.33,4.63,12.89,12.89,0,0,1-1,1.41,2,2,0,0,1-.12.19,20.46,20.46,0,0,1-2.94,3,13.55,13.55,0,0,1-1.35,1c-.31.22-.65.43-1,.63l-.76.52c-.22.16-.48.24-.71.38,0,0-.08,0-.11,0l-1.68.87c-.33.17-.68.32-1,.46s-.91.38-1.37.6-.79.35-1.19.55c.86.08,1.71.13,2.58.13A14.87,14.87,0,0,0,753.47,696.92Z"/><path d="M658.53,654.64a23,23,0,0,0,7.33,3.23,23.19,23.19,0,0,0,7,.68h0c.32,0,.63,0,.93-.07a18.06,18.06,0,0,0,7.56-2.3c-2.62,0-5.11-.18-7.56-.46a49.6,49.6,0,0,1-7.14-1.28,46.33,46.33,0,0,1-6.87-2.25c-1.22-.45-2.41-1-3.62-1.56l-.05,0c-1.06-.49-2.13-1-3.27-1.5a23.53,23.53,0,0,0,2.53,3A21.49,21.49,0,0,0,658.53,654.64Z"/><path d="M607.06,619.16c-.7,1.79-1.46,3.78-2.2,5.85-2.78,7.75-11.65,18-21.65,11.06s-32.13-9.26-32.13-9.26c-29-.25-57.06,63.06-73.25,99.76s.19,59.49,10.24,77.31c3.52,6.24,5.23,11,5.58,15.35L505.07,822l4.44-7.67s0,0,0,0c8.9-14.4,26-39.56,26-39.56s.73-1.23,2-3.41a17.62,17.62,0,0,0,1.3-2c4.72-8.25,22.41-37.93,34-59.71a.12.12,0,0,0,0-.08l.18-.3c12.31-22.11,25.68-47.45,30.69-57a18.75,18.75,0,0,0,2-3.86v0c2.29-6.17,4.66-11.3,4.66-11.3S634.25,664,662.05,675c13.09,5.17,26.79,10.59,39.25,14.73a23,23,0,0,0,15.2,12.45,22.76,22.76,0,0,0,17.21-2.46,5,5,0,0,0,.41.39c-17.76,34.05-20.61,40.32-20.61,40.32s-36.6,86.84-47.69,114.69c-.65,1.61-1.27,3.18-1.85,4.69l.28,0A54.32,54.32,0,0,1,675,862.14c17.75-45,50.23-125.31,50.23-125.31s2.38-5.47,15.42-32.06a25.41,25.41,0,0,0,11.3,2.66,25.61,25.61,0,0,0,20.15-9.86,21.51,21.51,0,0,0,2.85-1.3c14.19,27.22,16.8,32.83,16.8,32.83s47,108.51,62.58,146c3-3.87,5.69-7.19,8.22-10-1.93-4.54-4-9.64-6.45-15.32-12.17-28.48-52.18-117.22-52.18-117.22s-3.12-6.41-22.38-41.18c.17-.16.31-.32.47-.48A23.44,23.44,0,0,0,799.8,693,23.69,23.69,0,0,0,815.07,680c12.79-4.6,26.87-10.58,40.3-16.28,28.42-12.06,52.3-40.51,52.3-40.51s2.59,5.25,5.1,11.56c0,0,0,0,0,0a19.06,19.06,0,0,0,2.2,3.94c5.42,9.73,19.88,35.56,33.16,58.06.06.11.11.21.17.3s0,.07,0,.08c12.56,22.19,31.59,52.39,36.66,60.8a18.83,18.83,0,0,0,1.39,2l2.15,3.47s13.2,18.43,23,33c1,.46,1.85.89,2.64,1.3a24.77,24.77,0,0,1,3,1.83c1.41,1,3,2.25,4.63,3.65a23.73,23.73,0,0,1,4.9,29.26l-2.51,4.49c-5,8.9-9.75,17.65-14.29,26.07l.49.11,2.34.57a86.7,86.7,0,0,1,9.21-14.8,24.47,24.47,0,0,1,3-3.13,39.75,39.75,0,0,1,18.68-9.41,22.39,22.39,0,0,0-1-2c-9.07-17.2-14.27-23.31-4.33-42s26.27-42.62,8.62-80.09S998.67,610,968.72,611c0,0-22.78,3-32.94,10.4s-19.56-3-22.63-10.87c-.85-2.2-1.71-4.3-2.5-6.18A19.05,19.05,0,0,0,887,581.76a18.68,18.68,0,0,0-1.87.63,15.4,15.4,0,0,0-16.54-5.74,7.83,7.83,0,0,0-.9.29,18.7,18.7,0,0,0-34.12,8,38.18,38.18,0,0,0-4.45,1.64,11.39,11.39,0,0,0-12.2-4.27,11.53,11.53,0,0,0-2.23.89,16,16,0,0,0-21.17,8.37,29.16,29.16,0,0,0-26.27,16.87A20.16,20.16,0,0,0,748,619.24c-.63,0-1.26,0-1.89.08a28.46,28.46,0,0,0-25.81-15.69,15.58,15.58,0,0,0-20.79-7.6,10.65,10.65,0,0,0-2.13-.78,11.1,11.1,0,0,0-11.77,4.4,37.43,37.43,0,0,0-4.21-1.46,18.22,18.22,0,0,0-33.36-7c-.27-.08-.54-.16-.81-.22a15,15,0,0,0-15.94,5.92,17,17,0,0,0-1.76-.53,18.31,18.31,0,0,0-4.5-.56,18.6,18.6,0,0,0-18,14.07A18.4,18.4,0,0,0,607.06,619.16ZM525,777.82c-8.74,16.23-15.88-4-24.12-17.73s36.16-85.42,47-98.78,30.22,10.94,30.22,10.94C580,679.46,533.71,761.57,525,777.82ZM942,658.64s19.36-25.58,30.93-12.06,59.27,86.4,51.1,100.8-15,35.47-24.45,18.94S940.25,666.15,942,658.64ZM762.39,615.89a13.09,13.09,0,0,1,5.43-.33h0a3.63,3.63,0,0,0,1.28.29,6.42,6.42,0,0,1,1.42.36,17.43,17.43,0,0,1,4.49,2.26,13.71,13.71,0,0,1,2.56,2.32,12.34,12.34,0,0,1,1.88,3.13,12.94,12.94,0,0,0-.3-3.89,15.43,15.43,0,0,0-1.44-3.82,22.07,22.07,0,0,0-2.3-3.51c-.45-.54-.92-1.08-1.41-1.6l-.16-.15a22.45,22.45,0,0,1,14-11.57,22.89,22.89,0,0,1,7.87-.7l3.08.25.65-3A9,9,0,0,1,813,590.24l2.18,1.39,2-1.67a4.26,4.26,0,0,1,6.86,2l0,.1a.06.06,0,0,1,0,0l1.2,4.52,4-2.24a30.91,30.91,0,0,1,6.84-2.88c.07.13.15.25.23.38a19.05,19.05,0,0,0,2,2.74,15.54,15.54,0,0,0,2.52,2.22,10.65,10.65,0,0,0,2.9,1.41c-1.67-1.31-3.24-7.87-3.24-7.87l-.06-2.83a11.65,11.65,0,0,1,22.44-4.66l1.62,4,3.58-2.36a8.47,8.47,0,0,1,2.36-1.07,8.33,8.33,0,0,1,10,4.91l1.6,3.95L885.6,590a12.24,12.24,0,0,1,3.26-1.47,12.05,12.05,0,0,1,14.79,8.38,10.68,10.68,0,0,1,.41,2.68,12,12,0,0,1-8.78,12.11,11.66,11.66,0,0,1-2.55.39,9.53,9.53,0,0,1-2.2-.06l-1.59-.22a8.18,8.18,0,0,0-.74-.88,5.88,5.88,0,0,0-3.84-1.77,6.93,6.93,0,0,1,2.7,3.41h0a.44.44,0,0,1,.06.16,1.79,1.79,0,0,1,.11.35.31.31,0,0,1,0,.13,4.52,4.52,0,0,1,.15.61,9.41,9.41,0,0,1,.11,1.39,3.67,3.67,0,0,1-.07.75.71.71,0,0,1,0,.14,4.13,4.13,0,0,1-.13.63,5.07,5.07,0,0,1-.41,1.11c-1,1-2.12,2-3.22,3,0,0,0,0-.07,0a2.35,2.35,0,0,1-.42.15,5,5,0,0,1-4.11-.47,5.37,5.37,0,0,1-1-.76h0a8.25,8.25,0,0,1-2.54-5.15,7.07,7.07,0,0,0,.79,6.81v0l-.1,1.81a31.44,31.44,0,0,1-42.32,28c-.69-.24-1.37-.53-2-.83l-5.51-2.48.55,6a1.42,1.42,0,0,1,0,.29,10.37,10.37,0,0,1-7.59,10.67,9.86,9.86,0,0,1-4.28.25,5.12,5.12,0,0,1-.7-.11l-2.61-.55v0a9.8,9.8,0,0,1-1.88-3.22l-.1-.27a18.42,18.42,0,0,1-.53-2.07l-.24-2.17-.35,2.18a21.64,21.64,0,0,0,0,2.28,2.29,2.29,0,0,0,.05.52,11.39,11.39,0,0,0,1.13,4.06.67.67,0,0,0,.07.11v0l.25,2.87a16.55,16.55,0,0,1-7.44,15.29c-3.67,1.1-7.15,2-10.37,2.68h0a16.29,16.29,0,0,1-7.69-2.59,19.73,19.73,0,0,0,2.21-5.85,17.34,17.34,0,0,0-.74-8.83,16.89,16.89,0,0,0-2.75-5,.76.76,0,0,0-.08-.11s0-.05,0-.08a20.14,20.14,0,0,1,1.82,5.42,16.6,16.6,0,0,1-.45,8,17.24,17.24,0,0,1-2.33,4.66c-.27.4-.56.79-.86,1.17a36,36,0,0,1-4.64,4.68,1.8,1.8,0,0,0,.06-.22,23,23,0,0,0,.47-2.42,25.13,25.13,0,0,0-1.2-12.34,10.57,10.57,0,0,0,2.56-1.93,10.68,10.68,0,0,0,2.75-4.87,9.78,9.78,0,0,0,.3-3,10.62,10.62,0,0,0-2.32-6.25,13.53,13.53,0,0,0,.09-14.14,13.43,13.43,0,0,0-8.36-6.21,13.58,13.58,0,0,0-3.65-.4,19.84,19.84,0,0,0-12-15.79A13.27,13.27,0,0,1,762.39,615.89Zm-148.55-4.27a11.48,11.48,0,0,1,17.13-7l3.63,2.19,1.5-4a7.93,7.93,0,0,1,11.68-3.95l3.65,2.26,1.52-4A11.17,11.17,0,0,1,674.56,601v2.81l1,.22a18,18,0,0,1-.62,2.56,10.69,10.69,0,0,1-3.17,4.84,11,11,0,0,0,2.79-1.43,15.23,15.23,0,0,0,2.41-2.21,19.11,19.11,0,0,0,1.92-2.7c0-.1.11-.17.16-.27a30.14,30.14,0,0,1,6.62,2.59l4,2.12,1.12-4.35a2.22,2.22,0,0,1,.07-.31,4,4,0,0,1,4.85-2.81,3.69,3.69,0,0,1,1.56.77l2,1.61,2.15-1.44a8.67,8.67,0,0,1,6.81-1.18,8.54,8.54,0,0,1,6.24,6.29l.73,3,3.08-.33a21.12,21.12,0,0,1,7.59.49,21.41,21.41,0,0,1,13.38,10.13c-.26.24-.52.49-.75.74a18.32,18.32,0,0,0-1.36,1.58,21.12,21.12,0,0,0-2.23,3.42,15.28,15.28,0,0,0-1.36,3.74,11.3,11.3,0,0,0-.27,3.4,2.11,2.11,0,0,0,0,.36,11.39,11.39,0,0,1,1.85-3,12.41,12.41,0,0,1,2.48-2.22,15.12,15.12,0,0,1,2.86-1.58,11,11,0,0,1,1.34-.53l0,0,2-.46,0,0a2.63,2.63,0,0,0,.61-.12h0c.42,0,.85,0,1.29,0a2.3,2.3,0,0,0,0-.26,12.24,12.24,0,0,1,3.57-.07,11.29,11.29,0,0,1,1.54.28,11.4,11.4,0,0,1,1.89.65,12.72,12.72,0,0,1,7.65,13.1l-.64,5.9,5.48-2.25a6.51,6.51,0,0,1,8.09,2.69,6.49,6.49,0,0,1,.74,5,6.36,6.36,0,0,1-2,3.32l-2.35,2.08-1.39,1.24,4.39,2.42a3.59,3.59,0,0,1-1.66,6.74l-1,0-1.93,0-2,0a16.83,16.83,0,0,1,3.11,3.48c.26.47.49.95.75,1.39l.16.3c.07.13.15.25.22.4l.27.74.55,1.48c.14.51.22,1.05.35,1.55a20.9,20.9,0,0,1-.64,11.49v0c-.11.3-.23.58-.36.87a15.2,15.2,0,0,1-.77,1.63c-.22.36-.43.72-.64,1.1l-.55.78a12.58,12.58,0,0,1-1.34,1.69c-.3.33-.6.66-.92,1a21.33,21.33,0,0,1-2.84,2.42h0c-.32.22-.63.43-1,.63s-.77.48-1.16.7-1.05.57-1.59.82-.93.38-1.4.57a8.68,8.68,0,0,1-1.34.36,4.85,4.85,0,0,1-.68.13l-.89.09-1.69.19a28.65,28.65,0,0,1-3.18.15,16,16,0,0,1-6-1.24c-.46-.19-.92-.41-1.38-.64l-.19-.1c-.2-.11-.42-.22-.63-.36a.5.5,0,0,1-.17-.1,5.48,5.48,0,0,1-.65-.38c-.38-.22-.76-.47-1.14-.72s-.88-.62-1.33-.95a37.29,37.29,0,0,1-4.75-4.55c-.33-.4-.65-.79-.93-1.2A16.67,16.67,0,0,1,731,687a15.6,15.6,0,0,1-.63-7.7A19.29,19.29,0,0,1,732,674a.91.91,0,0,0-.08.13A16.38,16.38,0,0,0,729.3,679a16.89,16.89,0,0,0-.52,8.57,19.12,19.12,0,0,0,2.23,5.55,16,16,0,0,1-7.71,2.68c-2.91-.55-6-1.28-9.3-2.18a15.88,15.88,0,0,1-7.85-14.69l.17-3v0a10.82,10.82,0,0,0,1-3.87c0-.17,0-.35,0-.52,0-.74-.07-1.47-.1-2.2l-.41-2.12-.19,2.12a17.86,17.86,0,0,1-.46,2l-.09.27a9.29,9.29,0,0,1-1.68,3l-2.6.63-.57.13h0a9.79,9.79,0,0,1-4.17-.14,9.91,9.91,0,0,1-7.51-10c0-.11,0-.21,0-.32l.41-6-5.45,2.62a20.72,20.72,0,0,1-2.07.88,30.29,30.29,0,0,1-40.7-21.58,29,29,0,0,1-.66-4.4l-.14-1.85a6.85,6.85,0,0,0,.5-6.51,8.17,8.17,0,0,1-2.29,4.92,4.71,4.71,0,0,1-1.07.85,5,5,0,0,1-4.55.32l0,0-2.89-2.56h0a6.12,6.12,0,0,1-.73-2.66,7,7,0,0,1,.39-2.7,6.78,6.78,0,0,1,2.47-3.24,5.77,5.77,0,0,0-3.7,1.77,7,7,0,0,0-.63.79h0l-1.58.25a11.93,11.93,0,0,1-2.24.13,10.82,10.82,0,0,1-2.31-.33,11.5,11.5,0,0,1-8.37-14Z"/><path class="cls-2" d="M355.38,745.8q9.81-8.34,19.47-15.39c-7.54-.9-16.42,1.07-25.78,9.37A44.42,44.42,0,0,0,355.38,745.8Z"/><path class="cls-2" d="M306.57,715.77a47.2,47.2,0,0,0,1.72,5.12c12.74,2,22.87,7.21,30.19,15.59a2.52,2.52,0,0,1,.3.35,37.67,37.67,0,0,1,3,4,40.37,40.37,0,0,0,6.46-1l.31.07,0-.15a4.72,4.72,0,0,0,.48-.13s-.07-.26-.21-.71c2.69-8.32,5.38-16.6,8.17-24.83,7.77,8.61,15.9,11.87,23.32,12.36,10.3.7,19.2-4,23.86-7a34.44,34.44,0,0,0,3.45-2.53s-21.94-27-49.3-6.75c1.5-4.38,3-8.75,4.62-13.09l3.32-8.92c27.14,28.57,55.9,1.52,55.9,1.52s-25.48-28.87-54.68-4.63l3.65-8.93c1.56-3.87,3.05-7.76,4.57-11.63,28.1,26.72,55.46-1.15,55.46-1.15s-25.84-27-53.6-3.52c.63-1.55,1.26-3.09,1.92-4.63,2.56-6.12,5.22-12.23,8.07-18.26,29.5,27.72,56.64-1.94,56.64-1.94s-28.3-27.61-56,.57a204,204,0,0,1,11.32-20.74c.94-1.57,1.95-3.1,3-4.61l.11.08c.82-1.17,1.56-2.33,2.25-3.48l1-1.36c2.16-3.08,4.35-6.14,6.72-9.06s4.79-5.79,7.28-8.6c1.21-1.36,2.39-2.66,3.66-4,31.42,24.47,55.78-7,55.78-7s-23.57-19.5-46.45-3.56c2.8-3.1,5.61-6.17,8.44-9.24l5.85-6.22C478,580.65,501.8,550,501.8,550s-19-15.75-39.47-7.41q3.66-3.47,7.39-6.85c1.51-1.41,3-2.79,4.6-4.17,28.34,25.53,54.95-2.47,54.95-2.47s-17.52-17.76-38.86-11.23c3.42-2.75,6.84-5.51,10.21-8.32.26-.21.53-.4.79-.6,26.55,29,55.81,2.59,55.81,2.59s-18.12-21.37-41.88-13l2.13-1.51q6.33-4.43,12.82-8.66c24.41,31.74,55.91,7.23,55.91,7.23s-17.87-24.52-43.81-15.06l1.43-.92c3-1.85,6-3.71,9-5.63l-.15-.28c42.93,16.95,58.75-25.88,58.75-25.88s-42.27-17.23-58.75,25.88l-.15-.28c-2.51,1.11-5,2.28-7.49,3.45,17-17,7-42,7-42s-37,13.44-23.91,50.42c-1.39.74-2.76,1.51-4.14,2.27-2.9,1.64-5.81,3.3-8.66,5,12.5-19.32-.85-41.31-.85-41.31s-33.41,18.86-16,52.35l-1.46,1c-3.36,2.5-6.68,5-10,7.6,8.69-19.77-5.72-39.08-5.72-39.08s-31.17,21.72-11.25,53.15c-1.66,1.47-3.29,2.95-4.91,4.48-2.09,2-4.15,4-6.19,6.09,7.12-20-8.12-38.21-8.12-38.21s-30.48,24-7.45,54.68q-3.13,3.48-6.16,7c-1.93,2.27-3.8,4.58-5.66,6.9,8.41-23.74-12.94-41.88-12.94-41.88s-26.36,29.14,2.39,55.67l-.13.18-3.51,4.45q-3.48,4.51-6.75,9.19l-1.1,1.56c7.64-25.78-17-42.32-17-42.32S369.71,586,401,609.07l-3.05,4.72q-3.57,5.6-7,11.25c5.43-28.67-23.56-41.58-23.56-41.58s-16.86,34.82,17.12,52.35c-3.08,5.24-6,10.56-8.81,16,1.44-30.56-30.57-38.38-30.57-38.38s-10.31,37,25.8,48.35c-.25.56-.5,1.12-.73,1.68L365.92,674l-1.84,4.78c-3.35-32.94-38.3-33.93-38.3-33.93s-2.32,38.33,35.32,41.86c-.39,1.12-.75,2.2-1.12,3.34l-1.73,5.43q-2.08,6.74-3.89,13.54c-2.74-8.92-12.77-31.72-42.58-25.64,6.15,31.91,34.11,30.39,41.61,29.39-2.05,8.11-3.77,16.3-5.08,24.56C345.57,729.94,334.83,707.68,306.57,715.77Z"/><path class="cls-2" d="M402.94,610.56c31.86,25.81,56.69-6.27,56.69-6.27S428.39,578.42,402.94,610.56Z"/><path d="M358.16,913.59Q386,881.94,399,853.29t17.13-50.16q4.14-21.48,2.26-47.15c.28,0-.33-.77-1.85-2.26s-3.33-3.17-5.44-5.06a30.11,30.11,0,0,0-6.7-4.56,9.47,9.47,0,0,0-6.08-1.16Q371.38,760.81,343,789.89q-23.94,25-53,64.65t-55.9,97q13.24-31.24,30.84-65.75A776,776,0,0,1,305,816.53a164.22,164.22,0,0,0,13.65-24.39,90.41,90.41,0,0,0,6-18.39c1-5.21,1-9.57.12-13.1a21.58,21.58,0,0,0-4.14-8.57q-6.43-7.37-20.66-8.28l-1.66,1q-30.19,50.67-55,97.61-10.89,19.95-21.51,41T202,924.18q-9.18,19.85-15.92,37.19a253.49,253.49,0,0,0-9.89,30q-6.28,25.7-6,41.14t3.52,24.28q3.3,8.84,8.22,12.42a39.53,39.53,0,0,0,8.88,5.08,34.48,34.48,0,0,0,7,2.39,118.77,118.77,0,0,0,15.17,2.36,152.82,152.82,0,0,1,3.84-30.71,305.67,305.67,0,0,1,10.16-36.65q7.16-21.45,21-49.73,5.33,3.13,16.2,5.52t28.14-3.74q8.37,3.81,12.57,13.45t4.3,22.74a97.67,97.67,0,0,1-4.21,27.94,117.13,117.13,0,0,1-12.76,28.64,126.3,126.3,0,0,1-20.68,25.45,88.38,88.38,0,0,1-28.6,18.16q-17.22,7-30.73,7.11a76.47,76.47,0,0,1-24.25-3.35,62.11,62.11,0,0,1-18.8-9.67,89,89,0,0,1-13.37-12.34,90.12,90.12,0,0,1-8.36-11.12c-2.05-3.32-3.52-5.23-4.41-5.76-2.09-1.6-4.69-2-7.8-1.28a13.57,13.57,0,0,0-4.19,2,139.41,139.41,0,0,0,25.9,32.46,149.18,149.18,0,0,0,30.2,21.26q17.51,9.53,40.19,8.24a162,162,0,0,0,34.46-5.82,109,109,0,0,0,32.63-15.38q15.28-10.54,27.83-28t20.09-43.23q5.81-18.8,3.95-32.65t-7.35-23.42a53.06,53.06,0,0,0-13.12-15.58A83.9,83.9,0,0,0,312,954.44,229.43,229.43,0,0,0,333.56,938,250.83,250.83,0,0,0,358.16,913.59Zm-125,13q.79-2.75,1.72-5.43t1.88-5.38c2.62-7.12,5.47-14.14,8.48-21.1s6.17-13.82,9.33-20.7,6.56-13.64,9.89-20.43,6.83-13.5,10.33-20.2,7-13.38,10.72-20c7.27-13.26,14.75-26.41,22.75-39.27-6.27,13.78-12.83,27.39-19.48,41s-13.38,27.08-20.08,40.62-13.46,27-20.1,40.56c-3.28,6.79-6.58,13.57-9.69,20.43q-2.39,5.13-4.51,10.36a60.34,60.34,0,0,0-3.56,10.71A51.82,51.82,0,0,1,233.16,926.58ZM392,827.15c2.43-6.94,4.5-14,6.46-21.12a338.17,338.17,0,0,0,8.72-43.47,169.72,169.72,0,0,1-1.38,22.29c-.92,7.39-2.15,14.76-3.76,22a238,238,0,0,1-13.6,42.7,199.19,199.19,0,0,1-22.05,39,158,158,0,0,1-30.94,32.19,223.89,223.89,0,0,0,27.9-34.3q6.07-9.19,11.23-18.95c3.51-6.45,6.63-13.11,9.51-19.86S389.62,834.11,392,827.15ZM312.9,1070a137.48,137.48,0,0,0,9.28-15.41c1.46-2.61,2.58-5.38,3.85-8.08,1-2.78,2.2-5.53,3-8.39a78.07,78.07,0,0,0-9.65-68.53,59.78,59.78,0,0,1,10.5,15.14,71.56,71.56,0,0,1,6,17.65,72.85,72.85,0,0,1,1.2,18.71,80.69,80.69,0,0,1-3.52,18.44c-3.69,12-10.14,22.9-17.67,32.66A145.82,145.82,0,0,1,289.62,1098C298,1089,306,1079.92,312.9,1070ZM298.66,920.83a153.79,153.79,0,0,1-41,22.52,725,725,0,0,1,40.33-65q24-34.86,59.49-75.53a105.77,105.77,0,0,1,7.22-9L380,776.62q-1.33,7-4.27,19.36a225.15,225.15,0,0,1-8.93,28,307.35,307.35,0,0,1-15.1,32.86,218.25,218.25,0,0,1-22.14,33.68A180.47,180.47,0,0,1,298.66,920.83Z"/><path d="M493.38,865.06q8.07-8.34,18.06-17.11l-30.61-7.45Q465,856.84,462.32,867t.56,15.55q4,6.35,14,9.05-.93-4.86,4.4-12.22A124.37,124.37,0,0,1,493.38,865.06Z"/><path d="M1363.6,1019.57a102.55,102.55,0,0,0-5.72-13.9,96.52,96.52,0,0,0-8.8-14.32c-1.59-2.12-3.29-4.18-5.07-6.15,0,0,0,0,0,0-1.8-2-3.67-3.83-5.64-5.6s-4.06-3.44-6.16-5c-1.06-.78-2.08-1.6-3.16-2.35l-3.26-2.22-1.62-1.12-1.7-1-3.38-2.06c-2.32-1.23-4.6-2.57-7-3.66s-4.84-2.15-7.29-3.19c-2.5-.87-5-1.8-7.58-2.5l-.3-.09A52.72,52.72,0,0,0,1247.83,968c-5.78,5.08-27.2,27.39-29.77,30.17a75.17,75.17,0,0,1-7.32,7,5.67,5.67,0,0,1-.5.39,10.93,10.93,0,0,1-5.9,2.6c-3,.39-5-.75-5.93-3.43s-1.07-6.39-.47-11.14a112.24,112.24,0,0,1,3.66-16.61q2.72-9.49,6.72-20.23c2.66-7.16,5.45-14.47,8.43-22s6-14.72,9.1-21.68q6.64-15.79,11.81-26.1t8.75-16.41c1.41-2.6,2.74-4.91,4-6.91q1.55-2.46,2.92-4.31a29.86,29.86,0,0,0-2.75-2.14c-1.13-.6-2.7-1.32-4.72-2.19a52.78,52.78,0,0,0-8.68-2.63c-2.65-.51-4.86-.87-6.62-1.1s-3.2-.41-4.31-.58a18.23,18.23,0,0,1-3-.49.94.94,0,0,1-.28.68q-1.26,1.06-7.18,6.32t-14.93,14.47q-9,9.2-19.92,22-7.2,8.42-14.46,18.11-3.78,5-7.55,10.37a379.3,379.3,0,0,0-21.21,33.86,266.33,266.33,0,0,0-17.52,38.24,210,210,0,0,1,10-38,455,455,0,0,1,17.3-42.16,400.85,400.85,0,0,1,27-48.2c1-1.62,2.09-3.23,3.16-4.87-.08-1.52-1.13-2.77-3.17-3.75-1.81-1-4.63-1.71-8.48-2.14a130.21,130.21,0,0,0-16.92-.36,433.18,433.18,0,0,0-34.18,62.65q-2.62,6-5,12.09c-.87,1.06-1.76,2.09-2.67,3.11a101.5,101.5,0,0,1-7.17,7.22c-1.55,1.39-3.14,2.77-4.82,4.12a37.17,37.17,0,0,1-10.46,6.14,27.25,27.25,0,0,1-3.41,1.05q2.27-6.36,4.44-14.36a123.41,123.41,0,0,0,3.29-17.25,81.56,81.56,0,0,0,.54-18,49.4,49.4,0,0,0-1.58-8.88q-3.09-11-7.38-17.3a32.89,32.89,0,0,0-5.78-6.4q-4-3.54-5.65-4.11a41.38,41.38,0,0,0-10.08-4.34,25.53,25.53,0,0,0-9.26-1.13,15.28,15.28,0,0,0-9.28,4.15,66.9,66.9,0,0,0-8.37,14.42,62.29,62.29,0,0,0-4.87,18.16,52.08,52.08,0,0,0-11.69-6.55,76.12,76.12,0,0,0-10.53-3.35q-6.48,7.26-13.18,16.5a139.5,139.5,0,0,0-12.28,20.72,153.07,153.07,0,0,0-9.53,25.48,160.23,160.23,0,0,0-5.35,30.16c-.09,1-.15,1.93-.2,2.86v0c-2.54,4.21-5,8.22-7.48,12s-4.9,7.23-7.43,10.76a110.93,110.93,0,0,1-7.5,9.46,56.48,56.48,0,0,1-7.32,7,2.8,2.8,0,0,1-.35.25,11.77,11.77,0,0,1-6.2,2.75q-6.51,1-6.53-8t3.94-23.19a321.87,321.87,0,0,1,10.69-31.29q6.74-17.11,13.73-32.61,6.66-15.79,16.26-34.39t18.52-35.18q8.93-16.82,18.62-34.19l2.48-4.42c-.69-.62-1.62-1.32-2.75-2.14-1.14-.59-2.7-1.32-4.72-2.19a55.5,55.5,0,0,0-8.68-2.63c-2.65-.49-4.86-.86-6.63-1.09s-3.19-.42-4.29-.58a19,19,0,0,1-3-.49q-5.07,9.15-10.67,20.3-5,9.47-11.54,22.15t-13.22,27.17l-1.35-.92a70,70,0,0,0-17.94-9.48,46.89,46.89,0,0,0-17.37-2.62q-9.69.23-18.46,7.28-5.32,4.57-14.47,16.74a281.65,281.65,0,0,0-18.56,28.45c-1.07,1.85-2.13,3.72-3.15,5.62a313.43,313.43,0,0,0-14.07,29.15q-2,4.82-3.7,9.5-2,5.63-3.53,11.1A307.61,307.61,0,0,1,804,1007.87a162.23,162.23,0,0,1-11.91,12.65,98.77,98.77,0,0,1-12.7,10.41,52.93,52.93,0,0,1-12.76,6.47,22.32,22.32,0,0,1-7.19,1.23,18.06,18.06,0,0,1-4.92-.71c-3.56-.89-6-4-7.26-9.28s-1.38-11.94-.31-20A143.66,143.66,0,0,1,753.5,982a164.22,164.22,0,0,1,13.27-29.14,54.61,54.61,0,0,0,11.15,11.34c.25.2.51.4.77.58a23,23,0,0,0,2.21,1.41A28.5,28.5,0,0,0,795,969.67a19.84,19.84,0,0,0,12.57-4,50.8,50.8,0,0,0,11-11,92.92,92.92,0,0,0,9.16-15.12,143,143,0,0,0,6.79-16.3,92,92,0,0,0,3.75-14.66,35.25,35.25,0,0,0,.59-10,29.28,29.28,0,0,0-2.38-7.08c-.07-.12-.13-.26-.21-.39a20.25,20.25,0,0,0-3-4.35q-2.82-3.45-10.75-7.43t-25.4-5.29a140.43,140.43,0,0,0-36.17,27.66,160.32,160.32,0,0,0-13.49,16.68,134,134,0,0,0-12.09,21q-1.56,3.35-3,6.86c-1,1-2,2-3,3a104.41,104.41,0,0,1-8.6,7.54c-.54.42-1.07.83-1.58,1.21a46.93,46.93,0,0,1-5.52,3.64c-2,1.09-3.58,1.46-4.7,1.08q-5.67-1.65-4.28-8.78t6.76-16.79a225.5,225.5,0,0,1,13.11-20.59q7.74-11,14.73-20.87a19,19,0,0,0,2.72-5.15,5.75,5.75,0,0,0-.33-4.82,12.23,12.23,0,0,0-7-5,37.52,37.52,0,0,0-9.78-1.74q-4.94-.21-5.91-.16l-.33,0-.3.35c-1.26.95-4,3.34-8.13,7.19s-9.23,8.89-15.22,15.13-12.63,13.58-19.92,22q-6.33,7.31-12.6,15.54-4.57,6-9.1,12.44a349.19,349.19,0,0,0-20.58,33.33,262.19,262.19,0,0,0-16.89,37.71,210,210,0,0,1,10-38Q632,966.45,643,942.37a387.29,387.29,0,0,1,26.82-48.22c1-1.6,2.07-3.21,3.14-4.84-.09-1.52-1.14-2.77-3.17-3.75a23.89,23.89,0,0,0-8.33-2.15,124.57,124.57,0,0,0-16.74-.37,426.28,426.28,0,0,0-33.13,60.65c-1.31,1.41-2.61,2.79-3.88,4.12q-4.35,4.53-8.85,8.88a108,108,0,0,1-8.59,7.54c-.55.43-1.08.83-1.6,1.22a48.16,48.16,0,0,1-5.51,3.62c-2,1.09-3.59,1.46-4.7,1.08q-5.68-1.64-4.27-8.78t6.76-16.79A224.47,224.47,0,0,1,594,924q7.74-10.95,14.73-20.86a19.09,19.09,0,0,0,2.72-5.16,5.68,5.68,0,0,0-.34-4.82,12.21,12.21,0,0,0-7-5,38.68,38.68,0,0,0-9.79-1.74c-3.28-.14-5.26-.19-5.91-.16l-.33,0-.31.35c-1.26,1-4,3.35-8.12,7.2s-9.23,8.88-15.22,15.13-12.63,13.57-19.92,22q-6.33,7.3-12.62,15.56-4.56,6-9.09,12.41a356.67,356.67,0,0,0-20.58,33.33,266.65,266.65,0,0,0-16.89,37.71,210,210,0,0,1,10-38q6.18-18.09,17.13-42.15,10-22.06,26.83-48.23,1.53-2.4,3.14-4.84-.13-2.28-3.17-3.75a24.11,24.11,0,0,0-8.33-2.15,124.78,124.78,0,0,0-16.76-.37,423,423,0,0,0-34.15,63,263.65,263.65,0,0,0-10.28,27.16,190.9,190.9,0,0,0-6.62,27.77c-.21,1.32-.38,2.63-.55,3.92-2,3.28-4,6.42-5.91,9.41-2.42,3.65-4.89,7.22-7.43,10.76a94.34,94.34,0,0,1-7.66,9.46,75.16,75.16,0,0,1-7.31,7c-.17.14-.34.28-.51.4a10.81,10.81,0,0,1-5.89,2.59c-3,.4-5-.75-5.94-3.43s-1.07-6.39-.47-11.13a112.45,112.45,0,0,1,3.65-16.62q2.75-9.5,6.73-20.23t8.6-22q4.6-11.25,8.94-21.67,6.66-15.46,12-25.95t8.9-16.58q2.28-3.87,4.12-6.86c1-1.66,2-3.12,2.79-4.36a9.57,9.57,0,0,0-2.75-2.14c-1.13-.6-2.76-1.32-4.88-2.19A67.1,67.1,0,0,0,461,896.1q-4-.75-6.62-1.1c-1.76-.23-3.2-.42-4.3-.58a22.41,22.41,0,0,0-3.3-.14q-6.84,12.19-14.47,28.06-6.45,13.49-14.38,32.81t-16.08,43.4q-1.67,5.36-3.79,14a64.55,64.55,0,0,0-1.76,18.15,52.35,52.35,0,0,0,4.16,18.47q3.78,9,13.65,15a12.55,12.55,0,0,0,1.22.69,13.56,13.56,0,0,0,8.91,1.36,28.53,28.53,0,0,0,10.88-4.71l.18-.13a67,67,0,0,0,10.61-9.18,134.37,134.37,0,0,0,10.15-12.07q2.94-3.82,5.87-8.11c.06.89.12,1.79.21,2.68a60.36,60.36,0,0,0,1,6.7,54,54,0,0,0,3.82,11.74,48.13,48.13,0,0,0,2.2,4.29,18.26,18.26,0,0,0,5.11,3.32,23.37,23.37,0,0,0,4.3,1.66l.72.19a11.9,11.9,0,0,0,5.9-.17,433.06,433.06,0,0,1,16-41.92q1.23-2.72,2.59-5.55,7.8-16.38,19-36a356.49,356.49,0,0,1,31.51-46.09,50.66,50.66,0,0,0-3.73,16.73c-.07,1.6-.06,3.2,0,4.81a23.55,23.55,0,0,0,2,8.29,31.77,31.77,0,0,0,8.61,11.12,20.29,20.29,0,0,0,5.88,3.76,16.16,16.16,0,0,0,5.23,1.19,29.17,29.17,0,0,0,12-2c.64-.25,1.3-.51,1.94-.81a49,49,0,0,0,10.13-6.12q3.48-2.68,6.85-5.6c-1,3-2.08,6-3,9-.53,1.66-1,3.31-1.51,5-1,3.29-1.82,6.58-2.58,9.85q-1.53,6.51-2.54,13a104.94,104.94,0,0,0-1,26.31,55.83,55.83,0,0,0,7,22.73,18.34,18.34,0,0,0,5.11,3.32,23.9,23.9,0,0,0,4.3,1.65l.73.2a12,12,0,0,0,5.9-.17,427.73,427.73,0,0,1,16-41.92c.84-1.83,1.7-3.69,2.6-5.58q7.78-16.35,19-36a360.16,360.16,0,0,1,31.51-46.08,50.58,50.58,0,0,0-3.72,16.72,45.59,45.59,0,0,0,0,4.82,23.82,23.82,0,0,0,2,8.29,31.7,31.7,0,0,0,8.63,11.12,20.28,20.28,0,0,0,5.86,3.76,16.16,16.16,0,0,0,5.24,1.19,29.16,29.16,0,0,0,12-2c.65-.24,1.3-.5,2-.8A49,49,0,0,0,727,962.37l-.69,2.5c-.73,2.8-1.38,5.67-1.92,8.63-.52,2.66-.94,5.38-1.29,8.15-.57,4.34-.95,8.83-1.14,13.5q-1.14,20.07,4,32.08T740,1044c.57.3,1.15.58,1.73.83q8.39,3.69,19.26,1.58c.52-.1,1-.21,1.58-.34q11.24-2.55,23.06-10.57a130.5,130.5,0,0,0,25.1-23.09,160.75,160.75,0,0,0,13.64-18.5,72.87,72.87,0,0,0-.32,15.89,55.59,55.59,0,0,0,1.94,10.26c.1.38.22.76.33,1.14q3.78,12,15.8,18.38c.92.51,1.88,1,2.88,1.41,4.66,1.25,9.75.32,15.26-2.84l.31-.19q7.2-4.07,16.54-15,9.54-11.2,21-34.82a73.28,73.28,0,0,0-.93,12.68c0,1.26.06,2.5.16,3.73a55.49,55.49,0,0,0,1.41,9.31,32.22,32.22,0,0,0,1.49,4.68,34.06,34.06,0,0,0,3.94,7.14,36.15,36.15,0,0,0,10.72,9.73,12.94,12.94,0,0,0,1.24.7,13.61,13.61,0,0,0,8.88,1.35,28,28,0,0,0,10.44-4.35l.3-.19a59.38,59.38,0,0,0,10.63-9.3q5.25-5.73,10.15-11.91,4.35-5.65,8.68-12.21a53.65,53.65,0,0,0,2.06,8.93c.14.45.3.9.47,1.34a45,45,0,0,0,4.29,8.86,30.88,30.88,0,0,0,8.7,9.11,28.23,28.23,0,0,0,3.85,2.19,33.33,33.33,0,0,0,16.14,3.07,43.9,43.9,0,0,0,6.76-.82,59.57,59.57,0,0,0,17-6.28q12.25-6.58,24.49-19.43a138.72,138.72,0,0,0,22-31.44,37.62,37.62,0,0,0,2.61-6,8.54,8.54,0,0,1,.53-1c.19-.3.4-.65.66-1a26.27,26.27,0,0,0,1.33-2.7l1.59-3.7a43.21,43.21,0,0,0,18.76-6.37c.51-.32,1-.66,1.5-1q2.88-2.05,5.39-4.22c-1,3.62-2,7.2-2.79,10.77s-1.45,6.82-2,10.19c-.12.76-.24,1.51-.35,2.27a107.42,107.42,0,0,0-.81,26.13,55.68,55.68,0,0,0,7,22.73,18.53,18.53,0,0,0,5.11,3.33,23.52,23.52,0,0,0,4.29,1.65c.24.07.48.14.73.19a11.9,11.9,0,0,0,5.9-.17,383.26,383.26,0,0,1,17.95-45.66c1-2.11,2-4.25,3-6.38q5.6-11.16,12.59-23.85t15.77-25.84q8.76-13.12,19.17-26.35a298.53,298.53,0,0,1,22.75-25.67q-4.92,10.11-10.89,23.91c-1.39,3.23-2.83,6.64-4.33,10.18q-3.83,9.13-7.75,19.49-5.09,13.45-10.33,29-1.68,5.36-3.8,14a64.78,64.78,0,0,0-1.76,18.14,52.37,52.37,0,0,0,4.17,18.47q3.78,9,13.63,14.65c.32.19.63.38,1,.54a13.58,13.58,0,0,0,9.17,1.51,27.2,27.2,0,0,0,10.73-4.71.61.61,0,0,0,.14-.1,65.7,65.7,0,0,0,10.47-9.36c3.5-3.82,6.86-7.81,10.15-11.91,20.6-25.59,35-32.71,35-32.71a42.75,42.75,0,0,1,14-3,32.18,32.18,0,0,1,3.68-.1c1.23,0,2.46.09,3.69.19.63,0,1.24.07,1.86.14l1.85.25,1.85.26c.62.09,1.22.25,1.84.36a66.86,66.86,0,0,1,14.31,4.59c2.35.93,4.53,2.22,6.79,3.35,1.1.62,2.19,1.29,3.26,1.94l.45.27,1.18.71,1.57,1.08,3.12,2.16c1,.75,2,1.56,3,2.33a67.72,67.72,0,0,1,5.73,4.92c1.31,1.26,2.57,2.57,3.78,3.91a74.86,74.86,0,0,1,6,7.54,89.53,89.53,0,0,1,12.7,27.15,95.8,95.8,0,0,1,3.62,29.62,81.22,81.22,0,0,1-1.86,14.65,57.77,57.77,0,0,1-4.76,13.57,41.91,41.91,0,0,1-19.6,19,66.45,66.45,0,0,1-13.42,4.8,107,107,0,0,1-14.42,2.5,205.53,205.53,0,0,1-29.93.67c-10.08-.45-20.21-1.3-30.35-2.42s-20.29-2.47-30.46-3.9-20.34-3-30.56-4.46c-40.82-6.06-82.08-11.88-123.91-14.24-5.23-.27-10.46-.59-15.71-.71l-15.72-.37-3.93-.08h-3.94l-7.86,0c-5.24,0-10.48,0-15.72.21l-15.72.56-3.92.16-3.93.26-7.84.54-7.84.54c-2.61.17-5.23.32-7.84.62l-15.62,1.55-7.82.82-7.78,1-15.56,2.12-3.89.54-3.86.66L890,1091l-15.46,2.67c-10.25,2.11-20.49,4.2-30.7,6.4l-15.22,3.74c-5.06,1.27-10.15,2.43-15.18,3.82-10,2.84-20.11,5.63-30.1,8.6l-29.74,9.66-29.33,10.72-3.66,1.35-3.62,1.48-7.22,2.95-14.43,5.91A1026.32,1026.32,0,0,0,584,1203.76l.59,1.19c38-16.38,76.16-32,115.09-45.35l14.6-4.91,7.3-2.46,3.65-1.24,3.69-1.1,9.52-2.88,19.93-6.06,29.67-8,29.86-7.16c10-2.19,20-4.13,30-6.25,10.06-1.83,20.13-3.55,30.19-5.29l15.16-2.16,7.56-1.1,3.79-.54c1.27-.17,2.54-.3,3.8-.44l15.2-1.71,7.61-.86,7.61-.61a844.6,844.6,0,0,1,122.07-2.07c40.72,2.25,81.52,7,122.7,11.15,10.29,1.05,20.63,2,31,2.89s20.77,1.57,31.24,2.06,21,.75,31.56.49a219.8,219.8,0,0,0,31.89-2.91c2.55-.45,5.12-1,7.66-1.56,2.75-.66,5.51-1.41,8.24-2.28a77.52,77.52,0,0,0,15.33-6.64,55.46,55.46,0,0,0,13.36-10.58,52,52,0,0,0,5.26-6.77,57.51,57.51,0,0,0,4-7.5,66.13,66.13,0,0,0,4.67-15.87A88.76,88.76,0,0,0,1369,1051,107.22,107.22,0,0,0,1363.6,1019.57Zm-951.24-7.69a128.15,128.15,0,0,0-2.85,16.82,50.28,50.28,0,0,0,.82,17c-2.42-5.3-3.06-11.29-3.15-17.12a101.78,101.78,0,0,1,1.55-17.44c.93-5.76,2.31-11.42,3.75-17s3.29-11.14,5.12-16.64,3.94-10.91,6.09-16.28,4.44-10.69,6.89-15.93a305.36,305.36,0,0,1,16.08-30.74L434,946.69c-4.13,10.73-8.21,21.46-11.9,32.31A337.15,337.15,0,0,0,412.36,1011.88Zm70.78-32.06c-.93,2.89-1.68,5.83-2.56,8.74l-1.3,4.36-1.09,4.42-1.09,4.41c-.37,1.48-.81,2.94-1.07,4.43a285.51,285.51,0,0,0-5.48,36.12,159.5,159.5,0,0,1,1.84-36.82,233.77,233.77,0,0,1,9.13-35.83c1-2.93,2.13-5.78,3.18-8.68s2.19-5.76,3.42-8.58,2.38-5.68,3.71-8.46,2.55-5.6,4-8.32a229,229,0,0,1,18.82-31.67q-8.26,16.45-15.47,33.22c-2.34,5.63-4.78,11.2-6.89,16.91l-1.67,4.24L489,962.59c-1,2.87-2.12,5.69-3,8.59Zm82.71-56a50.55,50.55,0,0,1,5.36-10.64,62,62,0,0,1,7.42-9.34,40.22,40.22,0,0,1,9.59-7.46,19.62,19.62,0,0,1,5.91-2.08,9.35,9.35,0,0,1,6.1.85,11.73,11.73,0,0,0-5.42,1.37,25.6,25.6,0,0,0-4.58,3A91.73,91.73,0,0,0,582,907.2c-2.64,2.71-5.24,5.51-7.89,8.33S568.8,921.16,565.85,923.87ZM611.92,983l-8.83,29.19A240.36,240.36,0,0,1,608.36,982c1.12-5,2.47-9.91,3.85-14.83s3-9.77,4.62-14.62,3.54-9.61,5.51-14.35,4.15-9.38,6.58-13.91a123.52,123.52,0,0,1,8-13.17A69.8,69.8,0,0,1,647,899.5c-6.07,8.21-10.59,17.24-14.73,26.41s-7.65,18.65-10.94,28.19S614.92,973.28,611.92,983Zm85.41-71.89a40,40,0,0,1,5.53-8.66,50.91,50.91,0,0,1,7.28-7.25,36,36,0,0,1,8.92-5.42,21.24,21.24,0,0,1,5.17-1.39,10.36,10.36,0,0,1,5.28.63c-3.41.63-6.06,2.3-8.72,4.06s-5.15,3.79-7.68,5.81l-7.63,6.2C702.87,907.1,700.25,909.17,697.33,911.07Zm121.44,15.29c2-4.86,3.79-9.82,5.56-14.81s3.34-10.06,4.9-15.26a60.22,60.22,0,0,1-1.35,16.23,89.09,89.09,0,0,1-12.19,30.12,69.92,69.92,0,0,1-10.16,12.71c2.25-5,4.73-9.66,6.92-14.49S816.77,931.23,818.77,926.36Zm-9.44-21.5q-2.24,7-5.18,15.71t-6.3,16.11l-.83,1.79s0,0,0,0a65.36,65.36,0,0,1-6.17,10.56c-1.82,2.46-3.57,3.93-5.25,4.38a4.16,4.16,0,0,1-1.71.12c-4-.43-7-1.24-9-2.45a17.32,17.32,0,0,1-4.82-4,173.61,173.61,0,0,1,17.4-23A120.43,120.43,0,0,1,809.33,904.86Zm-68,52.33c-2,5.77-3.68,11.66-5.2,17.59a232.14,232.14,0,0,0-6,36.4A143.36,143.36,0,0,1,732.57,974a154.11,154.11,0,0,1,11.29-35.76,125.18,125.18,0,0,1,20.5-31.47c2-2.38,4.33-4.55,6.54-6.76l3.53-3.11,1.76-1.54,1.85-1.44a103.52,103.52,0,0,1,15.65-10.17,157.46,157.46,0,0,0-14.12,11.93l-1.68,1.56-1.6,1.65-3.18,3.31c-2,2.34-4.1,4.52-5.93,7a133,133,0,0,0-10.45,15,139.43,139.43,0,0,0-8.56,16.11A157.44,157.44,0,0,0,741.37,957.19Zm103,6-3.7,8.56c-1.27,2.84-2.56,5.67-3.66,8.59-2.36,5.77-4.7,11.55-7.25,17.28,1.55-6.06,3.31-12.06,5.06-18.08.85-3,1.92-6,3-8.91l3.18-8.85,1.6-4.42,1.86-4.32,3.71-8.66c1.18-2.91,2.67-5.68,4.08-8.49l4.26-8.42c6.26-10.91,13.05-21.64,21.6-31L881.3,893l1.64-1.71c.58-.54,1.2-1,1.79-1.57l3.59-3.12c1.23-1,2.56-1.9,3.83-2.84.66-.45,1.28-.94,2-1.35l2.07-1.21,2.05-1.19c.7-.37,1.44-.67,2.16-1a25.06,25.06,0,0,1,9.07-2.53,20.31,20.31,0,0,0-4.39,1.5L903,879c-.69.35-1.33.79-2,1.18s-1.32.78-2,1.2l-1.86,1.37-1.86,1.35c-.6.47-1.16,1-1.74,1.51-1.15,1-2.35,2-3.45,3l-3.22,3.3-1.61,1.64-1.49,1.76-3,3.51a164.19,164.19,0,0,0-10.73,15l-2.54,3.86c-.8,1.31-1.56,2.67-2.34,4l-4.63,8L856.28,938c-1.43,2.75-2.89,5.48-4.15,8.31l-4,8.41-2,4.21Zm64.58-9.48c-.21.23-1.51,2.43-3.9,6.62s-5.42,9.33-9.12,15.44-7.76,12.65-12.18,19.56-8.76,13.25-13,19q-4.5,6-8.51,10.45c-1.14,1.26-2.25,2.44-3.34,3.52q-5.43,5.38-8.43,4.59t-2-10.07a143.88,143.88,0,0,1,4.77-22.91q3.81-13.67,9.95-29.94t13.32-31.26a206.48,206.48,0,0,1,15-26.62q7.88-11.6,15.16-16.28a87.42,87.42,0,0,1,11.32-5.89,36.29,36.29,0,0,1,8.23-2.45,19.33,19.33,0,0,1,6.22,0c1.78.35,3.33.69,4.65,1q-2.82,6-5.59,12.05-4.71,10.26-9.28,20.63Q914.87,937.59,908.9,953.68Zm9.35,3.29a93.62,93.62,0,0,0-3.17,9.22l.78-4.84a47.47,47.47,0,0,1,1.13-4.78q.63-2.39,1.3-4.75l1.52-4.67,1.57-4.65,1.7-4.6c1.13-3.06,2.3-6.12,3.54-9.14,4.83-12.15,10.3-24,15.85-35.8s11.52-23.41,17.68-34.9,12.51-22.89,19.38-34c-5.13,12-10.58,23.85-16.09,35.65l-8.31,17.67L946.75,895l-8.4,17.6-4.2,8.81L930,930.23c-1.43,2.93-2.7,5.91-4.07,8.85l-2.05,4.43L922,948l-2,4.46Zm116.94-58.69a71,71,0,0,1,3.76-16.85,59,59,0,0,1,7.83-15.24c-1.65,5.46-3.07,10.85-4.28,16.26a144.44,144.44,0,0,0-2.59,16.27,96.11,96.11,0,0,0-.19,16.36c.13,1.36.29,2.73.39,4.11s.47,2.7.68,4.08l.31,2.07.51,2c.33,1.36.65,2.74.93,4.16-.76-1.2-1.46-2.45-2.16-3.71-.36-.62-.7-1.26-1-1.91l-.8-2c-.5-1.35-1-2.7-1.49-4.08s-.67-2.81-1-4.22A57.62,57.62,0,0,1,1035.19,898.28Zm-48.44,43.51c-.55,1.65-1,3.33-1.62,5-1.12,3.32-2.14,6.67-3.2,10L975.71,977a123.43,123.43,0,0,1,2.65-21.16,157.49,157.49,0,0,1,5.67-20.6,119.82,119.82,0,0,1,8.82-19.54A68.08,68.08,0,0,1,1006,898.87a154.62,154.62,0,0,0-9.89,18.54c-2.88,6.34-5.27,12.89-7.65,19.44Zm76.94,19.84a189.2,189.2,0,0,1-12.13,22.67,125.63,125.63,0,0,1-16.51,21.28,67.32,67.32,0,0,1-18.26,13.66,31.87,31.87,0,0,1-13.9,3.54,29.44,29.44,0,0,1-4.77-.34q-4.32-.74-6.44-6.36t-1.8-14.34a113.51,113.51,0,0,1,2.81-20,149.53,149.53,0,0,1,7.2-23.21,201.06,201.06,0,0,1,11.6-24.12,151.06,151.06,0,0,1,15.76-22.88,55.12,55.12,0,0,0,6.28,18.91,71.53,71.53,0,0,0,4,6.59,56.87,56.87,0,0,0,14.93,14.39,95.85,95.85,0,0,0,12.55,7.18C1064.6,959.61,1064.15,960.63,1063.69,961.63Zm14.83-51.54a155.53,155.53,0,0,1-9.17,37.75,33.2,33.2,0,0,1-3.17-1.88,67.58,67.58,0,0,1-8.13-6.33,32.75,32.75,0,0,1-9.19-14.57q-3-9-.59-21.95t15.14-30.73c1.85,1.65,3.69,3.36,5.54,5.1a35.29,35.29,0,0,1,4.57,5.16,24.7,24.7,0,0,1,1.34,2.17Q1080.11,894.31,1078.52,910.09Zm39.84,33.85c-.45,1.34-.78,2.71-1.17,4.07l-2.31,8.15a230.56,230.56,0,0,0-5.77,33.5,133.21,133.21,0,0,1,2.16-34.31,208.91,208.91,0,0,1,9.69-33.1c2.21-5.31,4.34-10.65,6.85-15.81l1.86-3.89,2-3.83c1.31-2.55,2.62-5.1,4.07-7.58a208,208,0,0,1,19-28.61q-8.33,15-15.7,30.32c-1.27,2.53-2.4,5.14-3.62,7.69l-1.79,3.85-1.68,3.9c-2.34,5.16-4.41,10.42-6.5,15.67l-3,7.94c-1.05,2.63-1.76,5.36-2.7,8Zm75.26,12.46a283,283,0,0,0-8.06,33.55c-.09-11.62,1.9-23.19,4.49-34.5.68-2.82,1.31-5.67,2.1-8.46l2.4-8.37c.79-2.8,1.78-5.53,2.66-8.29s1.83-5.51,2.82-8.23c2-5.46,4.06-10.86,6.22-16.24s4.45-10.7,6.91-16A333.27,333.27,0,0,1,1229,859l-12.48,32.32c-4.11,10.77-8.26,21.5-12.07,32.35-1,2.7-2,5.4-2.89,8.13s-1.89,5.43-2.77,8.16l-2.69,8.18Zm-96,136.31-10.94-.52c-3.64-.11-7.3-.07-11-.12l-21.88-.31-21.89.35-10.93.19c-3.64.11-7.29.32-10.93.48l-21.85,1c-14.54,1.13-29.1,1.89-43.6,3.51q-43.54,4.08-86.76,11.28c-7.21,1.14-14.37,2.53-21.57,3.73s-14.34,2.7-21.51,4.09q-21.5,4.2-42.79,9.42A753.33,753.33,0,0,1,857.28,1105c7.2-1.3,14.39-2.66,21.62-3.85l21.7-3.36c14.52-1.91,29-3.84,43.63-5.15,14.56-1.56,29.2-2.29,43.81-3.28l22-.69c3.66-.09,7.32-.26,11-.29l11,.08c29.3-.29,58.55,2.09,87.6,5.25Q1108.58,1093.26,1097.65,1092.71Z"/><text class="cls-4" transform="translate(697.69 468.4) rotate(0.53)">BIRRA</text><circle cx="670.05" cy="444.8" r="7.54"/><circle cx="855.69" cy="444.8" r="7.54"/><text class="cls-5" transform="translate(748.89 401)">ARG</text></svg>