<svg xmlns="http://www.w3.org/2000/svg" viewBox="0 0 1200 1200"><defs><style>.cls-1{fill:#92bee2;}.cls-2{fill:#fff;}.cls-3{fill:#bc5e5e;}.cls-4{fill:#645191;}.cls-5{fill:#3a3356;}.cls-6{fill:#d8d7ca;}.cls-7{fill:#f77777;}.cls-8{fill:#f4e789;}.cls-9{fill:#adadad;}.cls-10{fill:#353535;}.cls-11{fill:#1e1e1e;}.cls-12{fill:#111;}.cls-13{fill:none;stroke:#000;stroke-miterlimit:10;stroke-width:0.5px;}.cls-14{fill:#5980cb;}</style></defs><title>frank-fondo-celeste</title><g id="Capa_1" data-name="Capa 1"><rect class="cls-1" width="1200" height="1200"/><path class="cls-2" d="M203.06,204.11v35.25H264.8v24.77H203.06v48.6H172.19V179.33H273v24.78Z"/><path class="cls-2" d="M417.06,312.73l-25.72-37.16h-28.4v37.16H332.07V179.33h57.74q17.73,0,30.78,5.91A45.74,45.74,0,0,1,440.69,202q7.05,10.86,7.05,25.73t-7.14,25.63q-7.16,10.77-20.3,16.48l29.92,42.88Zm-7.81-102.24q-7.25-6-21.15-6H362.94V251H388.1q13.9,0,21.15-6.1t7.24-17.15Q416.49,216.49,409.25,210.49Z"/><path class="cls-2" d="M598.09,284.14H536.16l-11.81,28.59H492.71l59.46-133.4h30.49l59.64,133.4H609.91Zm-9.71-23.44-21.16-51.07L546.07,260.7Z"/><path class="cls-2" d="M816.67,179.33v133.4H791.32l-66.5-81v81H694.33V179.33h25.53l66.32,81v-81Z"/><path class="cls-2" d="M935,260.32,917.09,279v33.73H886.41V179.33h30.68v62.32l59.08-62.32h34.3l-55.26,59.46,58.5,73.94h-36Z"/><path class="cls-2" d="M203.06,432.78V468H264.8v24.77H203.06V541.4H172.19V408H273v24.77Z"/><path class="cls-2" d="M417.06,541.4l-25.72-37.16h-28.4V541.4H332.07V408h57.74q17.73,0,30.78,5.91t20.1,16.77q7.05,10.86,7.05,25.72T440.6,482q-7.16,10.77-20.3,16.49l29.92,42.87Zm-7.81-102.23q-7.25-6-21.15-6H362.94v46.5H388.1q13.9,0,21.15-6.1t7.24-17.15Q416.49,445.18,409.25,439.17Z"/><path class="cls-2" d="M598.09,512.82H536.16L524.35,541.4H492.71L552.17,408h30.49L642.3,541.4H609.91Zm-9.71-23.44-21.16-51.07-21.15,51.07Z"/><path class="cls-2" d="M816.67,408V541.4H791.32l-66.5-81v81H694.33V408h25.53l66.32,81V408Z"/><path class="cls-2" d="M935,489l-17.92,18.67V541.4H886.41V408h30.68v62.31L976.17,408h34.3l-55.26,59.46,58.5,73.93h-36Z"/><path class="cls-2" d="M203.06,661.46v35.25H264.8v24.78H203.06v48.59H172.19V636.68H273v24.78Z"/><path class="cls-2" d="M417.06,770.08l-25.72-37.16h-28.4v37.16H332.07V636.68h57.74q17.73,0,30.78,5.91a45.74,45.74,0,0,1,20.1,16.77q7.05,10.86,7.05,25.73t-7.14,25.63q-7.16,10.77-20.3,16.48l29.92,42.88Zm-7.81-102.24q-7.25-6-21.15-6H362.94v46.5H388.1q13.9,0,21.15-6.1t7.24-17.15Q416.49,673.84,409.25,667.84Z"/><path class="cls-2" d="M598.09,741.49H536.16l-11.81,28.59H492.71l59.46-133.4h30.49l59.64,133.4H609.91Zm-9.71-23.44L567.22,667l-21.15,51.07Z"/><path class="cls-2" d="M816.67,636.68v133.4H791.32l-66.5-81v81H694.33V636.68h25.53l66.32,81v-81Z"/><path class="cls-2" d="M935,717.67l-17.92,18.68v33.73H886.41V636.68h30.68V699l59.08-62.32h34.3l-55.26,59.46,58.5,73.94h-36Z"/><path class="cls-2" d="M203.06,890.13v35.26H264.8v24.77H203.06v48.59H172.19V865.36H273v24.77Z"/><path class="cls-2" d="M417.06,998.75l-25.72-37.16h-28.4v37.16H332.07V865.36h57.74q17.73,0,30.78,5.91A45.74,45.74,0,0,1,440.69,888q7.05,10.86,7.05,25.72t-7.14,25.63q-7.16,10.77-20.3,16.49l29.92,42.87Zm-7.81-102.23q-7.25-6-21.15-6H362.94V937H388.1q13.9,0,21.15-6.1t7.24-17.15Q416.49,902.53,409.25,896.52Z"/><path class="cls-2" d="M598.09,970.17H536.16l-11.81,28.58H492.71l59.46-133.39h30.49L642.3,998.75H609.91Zm-9.71-23.44-21.16-51.07-21.15,51.07Z"/><path class="cls-2" d="M816.67,865.36V998.75H791.32l-66.5-81v81H694.33V865.36h25.53l66.32,81v-81Z"/><path class="cls-2" d="M935,946.35,917.09,965v33.73H886.41V865.36h30.68v62.31l59.08-62.31h34.3l-55.26,59.46,58.5,73.93h-36Z"/><polyline class="cls-3" points="575.27 1200 633.42 1169.39 1057.83 1172.56 1200 1172.88 1200 1200 575.27 1200"/><path class="cls-4" d="M265.64,765.43l-28.88,60.75,25.81,78,46.07,176.31,30.93,69.43,147.51,39.93,81.43,4.84,55.08-9.41L686,1167.75l87.73.62L786,1150.55l-14.13-49.15,74.33,12.16,124.39,48,59.3,10.65h29.49s-10.65-31.13-24.78-41.78c-7.78-6.76-.61-14.54-4.3-20.48s-22.94-60-37.88-75.36-39.94-46.28-44.85-52-13.18-12.87-17.2-14.55-10.21-10-13-15.76-14.45-26.82-17.73-37.68S875.89,865.29,867.69,860s-14.54-7.79-17.4-29.29-31.44-86.15-35.22-91.2-48.49-34.94-48.49-34.94l-31.17-11.21-61.85,5.06L488.34,677.58l-81.81,7.22-129,64.51Z"/><path class="cls-5" d="M288.58,805.47s-26.42-12.06-22.74-22.09,9.63-17.61,29.08-14.54,54.06,10.08,56.93,20.6.21,19.33,18.64,22.81,33.58-3.48,28.67-13.1-9.42-21.62-20.48-28.32S357,753.89,338.13,748.56s-59-3.48-68,0-14.09,3.9-18.63,10.45-21.2,14.07-20,16.56-5.37,8.22-.06,11.49,17,9.83,17,9.83l17.4,5.53,22.74,3.05"/><path class="cls-5" d="M682.93,752.35s3.6-5.69,6.33-7,5-1.91,5.39,3.82-7.2,13.31-4.21,37.06,9.13,59.39,8.51,70-1.78,40.34.86,54.27,6.52,41.57,9.79,44,11.27-21.5,11.68-29.69,6.14-37.88,4.3-43,.82-35.84-3.49-48.74-6.34-22.56-5.52-22.85,14.74,33,15.35,44.8-5.73,56.89-6.75,67.74-3,40.75-7.14,52.63-7.61,60.82-5.36,67.58,5.12,16.59,5.12,16.59L703.25,1041,695.5,933.89,683.82,797.81l-.89-45.46"/><path class="cls-5" d="M810.36,1128l-2.87,36.86L787.42,1169l-31.94,5.29-50.38-1.81-66.35,5.89-29.57,9.06-29.82,10.65L478.88,1200l-30.58-7.13-3.11-1.34a37.61,37.61,0,0,1-4.46.8c-11.27,1.22-34.2,0-34.2,0L392,1162l-11.7-32,4.1-17.86-8.6-23.91-9.42-22.12,2.05-17-28.87-5.53-27.24-12.08,15.15-23.2-25.39,17.06-30.31-27.66L260.31,954,255,889.17l-20.07-26.93-10.65-27.87-2.46-17.66v-11l10.66-10.62,27.44,10.86s-12.39,13.35-.46,17.22,27.49,4.69,39.77,10-24.36,3.94-23.6,10.65,26.47.41,34.66,5.73-25.39,12.29-20.07,16.18,20.38-2.92,26.63,0-23.8,17.66-23.76,27.24,4.91,18.42,13.1,21.7-10.64,15-10.64,21.23,9.42,18.5,19.66,26.28,15.71,8.57,22.12,3.67,16-5.31,10.64,8-8.19,19.41-3.68,27.22,11.36,38.09,22.52,39.92,5.32,32.59,17.61,34.23,20.07-8.19,25.8-21.5,16.39-20,7-24.24-23.74-7.18-28.25-7.52,5.56-2.64,5.56-2.64,11.62,3.89,20.23,0,19.4-11.68,24.16-10.86,2.46,1.64,2.25,7.79-5.94,25.39-2.25,35.22c3.6,9.61,7.09,22.19,7.25,22.75-.32-.55-10.29-17.92-17.11-20.93s-15.12,22.34-14.3,31.35-1.8,43,2,53,18.59,21.94,29.36,27.27,26.12,9,40.15-2.46,21.81-19.71,29.8-24.81-26.71,29-37.2,36.92c-.87.65-1.77,1.31-2.71,2a40.93,40.93,0,0,1,7.76,5.17c6.9,5.8,31.95,7,42.33,7.79s35.48-8.6,41.23-15.19,35.48-23.34,42.62-28.2,15.18-10.39,24.59-16.75,4,3-11.29,13-25.62,20.89-33.95,24.44-15,16.51-11.73,19.79,28.66-1.23,36.45-2.87,66.34-29.07,55.29-30.3-27-1.23-32.36-5.33,7-3.27,19.11-3.27,37.41-21.3,54.94-31,1.72,4.77.49,16.24,0,10.24,2.05,16.38,30.72,3.69,45.46,9.83,12.7-4.09,5.32-12.28,2.46-7,7-14.75-9-2-16.8-7.15-1.64-6.36,4.84-16.19,9.5-4.1,5-9-16.78-5.33-11.05-9.42,10.24-5.74,7.37-8.19-9.83-8.6-2-9.63,8.29,2.87,8.29,2.87l21.61,20.68Z"/><path class="cls-3" d="M488.34,629.07l-9,22.74L462.84,676l3.38,26.14-21.81,3.22-25.8,1.22s2.15,12.29,12.9,36.1S446,764.51,446,764.51l6.82,8.43,3.1,16.5s-8.73.7-13-10.06-14.44-39-19.05-42.08-9.83-6.38-10.14,1.42c-.23,5.85,5.25,12.67,12,25.3,2.26,4.21,4.66,9.07,7,14.75,9.52,22.73,10.75,25.53,8.6,25.05s-21.5-71.64-34.71-54.64S394.34,781.53,395,785.83s-37.48-29.08-48.84-32.51-71.88-12.91-87.85,2.74S236,768.51,229.75,784.24s-4.66-6.49,12.24-21.49,50.68-40.19,50.68-40.19S363,677.1,370.38,672.8s12-11.11,17.2-12.16,44.85-13.25,54.68-17.59,28.35-2.51,37.93-12.34c0,0,5.08-4.19,8.15-1.64"/><path class="cls-5" d="M586.79,813.17c-4.46,5.36-47.57,4.82-66.82-2.88s-32.76-23.84-44.25-34.9-20.87-.82-22.91-2.45-22.94-27.44-14.74-33.26,12.28-6.89,12.28-11c0-1.88.17-7.21.56-14.41,0,0-6.8,10-10.18,10.35s-12.91-7.46-12.91-10-3.07-1.07-6.6-2.11-7.53-8.1-2.61-8.72,11.37.37,9.21-4.12-10.44-4.51-17.5-14S398,671.47,395.88,669.83s-4.3-5.64,0-6.25,2.76-5.58,10.75-2.94,26.72,9,31,13.18S452.81,688,452.81,688c.13-1.39.26-2.79.4-4.18a25.76,25.76,0,0,1,.84-4.33s-8.41-14.81-9.94-20-2.77-9.77,0-9.57,7.37,7.73,10.74,9.57,14.47-7.65,14.47-7.65a258.59,258.59,0,0,1,19-22.71l41,68.94L565,753.32l24.29,27.45S591.25,807.82,586.79,813.17Z"/><path d="M594.5,833.54s71.64,174.89,75.15,212.57c29.71,11.47,46.51,13.52,48.14,13.52s-10.23-15.57-7.78-24.58-1.23-74.95-4.09-83.14-11.42-50-10.42-61.43,1-58.16-1.66-66.35-11.25-28.82-10-34.69.65-13.64,2.16-20.6,3-14.55,0-15.52-20.6-4.14-20.6-4.14l-38,28.75Z"/><path class="cls-2" d="M690.15,965.53c-3.69,5.84,4.92,11.06,5.22,20s-1.23,8.92-5.53,1.85c-3.69-6.06-8.73-30.83-13.38-55a.42.42,0,0,1,0-.07c-.78-4-1.53-8-2.28-11.89C669,893,662.81,874.61,658.24,866.31s-2.49-13.51-1.88-16-2.15-16.58,0-19.35c2-2.61,4.9-1.93,20,12.81l0,0c.56.55,1.15,1.11,1.74,1.7-5.07-5.93-11-30.15-12.84-37.79-.13-.53-.24-1-.33-1.33a6.21,6.21,0,0,0-1.57-2.59h0l0,0c-4.59-4.87-17-9.19-19.29-10-2.71-.92-8.19,3.68-13.4.62-.76,4.91-25.66,31.64-31.57,36.55s-5,1.84-6.22-1.84-7.52-14.75-6.14-16a2.75,2.75,0,0,0,.83-2.88c-.27-1.57-1.28-4-3.49-7.87-4.33-7.68-53.1-75.87-63.23-89.88s-10.77-32.11-10.77-32.11l36.29,18.17L565.13,708,657.9,760l19.45-8.76s4.27.83,5.94,3.52h0a4.42,4.42,0,0,1,.53,1.26c.87,3.7-2.27,19.94-4.11,24.71s.91,6.6,4.11,17c2.4,7.87,7.21,39.59,6.56,60.68-.22,6.92-1,12.71-2.69,16.12a29.07,29.07,0,0,0-1.79,4.7c-4,13.73-.1,32.23,2.1,38,2.45,6.46,8.29,21.2,7.41,28.57S693.83,959.69,690.15,965.53Z"/><path class="cls-6" d="M619.7,780c-5.86,13.22-32.08,30.29-32.08,30.29-.27-1.57-1.28-4-3.49-7.87-4.33-7.68-53.1-75.87-63.23-89.88s-10.77-32.11-10.77-32.11l36.29,18.17C578.22,727.74,623.54,771.36,619.7,780Z"/><path class="cls-6" d="M663.44,803.82l0,0S663.39,803.72,663.44,803.82Z"/><path class="cls-6" d="M690.38,858.49l-13.93-14.65c.56.55,1.15,1.11,1.74,1.7-5.07-5.93-11-30.15-12.84-37.79.82,1.73,2,4.2,3.6,7.73,6,12.9,10.91,23.95,14.9,31.17s5.84-.17,4-10.22-4.54-35.54-6.11-39.54S674.56,790,676,786a58.49,58.49,0,0,0,3.42-13.82c.77-6.14,2.34-18.85,2.34-18.85s.59.57,1.55,1.47h0a4.42,4.42,0,0,1,.53,1.26c.87,3.7-2.27,19.94-4.11,24.71s.91,6.6,4.11,17C686.22,805.68,691,837.4,690.38,858.49Z"/><path class="cls-6" d="M690.15,965.53c-3.69,5.84,4.92,11.06,5.22,20s-1.23,8.92-5.53,1.85c-3.69-6.06-8.73-30.83-13.38-55a.42.42,0,0,1,0-.07s7.45,32.44,9.09,34,6.35-9,6.86-14.63,1.23-18.33-1.33-22.53-7.58-8.6-8.08-13.1-2.26-21.1-.93-24.07-.32-12.4,3.84-12.6c-4,13.73-.1,32.23,2.1,38,2.45,6.46,8.29,21.2,7.41,28.57S693.83,959.69,690.15,965.53Z"/><path class="cls-3" d="M719.62,696.35s11.49-.71,15.17,5.79,5.58,10.38,11.29,13.86,25.16-1,34,6.56,5.53,16.14,11.26,16.16.82-17.11,3.48-14.08,12.49,22.49,17,24.54,5.32-5.68,3.28-9.5-24-29.2-34-33.71-11.67-6.39-15.56-6.27-22.73-8.27-29.08-9.91-12.6-3.18-12.6-3.18L717,690.92l2.6,5.43"/><polyline class="cls-7" points="877.74 1112.21 940.6 1133.96 967.63 1146.25 976.84 1155.06 988.31 1167.75 986.77 1172.46 882.44 1171.85 871.59 1128.23 877.74 1112.21"/><path class="cls-3" d="M282.23,892.27s23.65-19.51,55.9-24.73,46.08-6.45,47.61-4.3-45.46,6.45-49.15,12.29-7.37,12.59,5.84,12.9,40.93,0,43.35,9.22,10.41,18.43-1.88,30.41-35,18.73-24,24,24,3.38,28.26,5.53,7.37,6.45-4.61,6.45-31.94-2.15-35.63-4-15.49,9.88-14.3,10.52-8.43,6.07-12.42,1.46-38.4-19.66-28.57-30.41,34.09-5.94,51.6-10.34,24.27-3.17,15.06-8.09-30.11-22.12-32.87-24-35,16-41.78,25.5S277,942.39,275.77,938s4.61-29.64,22.12-38.55,23-19,11.06-15.36S281,897,282.23,892.27"/><path class="cls-3" d="M351.34,1003s11.06-5.49,20.58-10.58,15.66-2,10.14,7.2-9.22,21.19-3.69,21.81,15.05-1.21,12,4-4.35,7.75,1.66,10-.5,4.31-3.08,13.73,3.5,25.7,0,23.86S374.38,1041.45,379,1037s2.61-12.44-6.07-5.39-17.2,9.66-17.39,3S357.17,1006.08,351.34,1003Z"/><path class="cls-2" d="M767,1072.53s8.3,16.79,11.78,22.32,8,20.68,11.47,22.94,6.71,9,6.94,14.94,3.91,7,4.32,10-2.31,20.44-6.79,26-5.19,5.78-5.19,5.78l30.82-.27s1-6.52,5.32-6.72,14.95,3.89,14.54,5.53,42.19-1.23,42.19-1.23.44-46.38-4.7-59.64-37.9-37.63-37.9-37.63L795,1069.66l-28,2.87"/><path class="cls-5" d="M552.28,1049.18s-18.79,28.88-31.48,41.16S507.65,1108,510.13,1110s21.72-31.45,32.37-36.82,18.54-23,19.1-27.48S552.28,1049.18,552.28,1049.18Z"/><path class="cls-5" d="M897.49,1093.93s12.8.92,30.61-7.89,33.59-14.74,44-15.35,26.62,0,23.55,4.71-12.08-4.17-31.74,6.82-45.44,12.63-45.26,23.48,3.49,16.18,14.13,12.09,17.41-11.47,26.42-18.23,13.31-12.49,17.61-13.52,1,6.56-4.3,15.16-17,21.5-15.15,25.8,7-4.71,12.69-1,9.83,7.57,10.65,14.74,1.64,6.76,9.63,5.12,2.87,11.47,3.89,14.74,6.55-2.45,11.26-5.93,11.26-6.56,11.67,1.84-1.46,11.52,1.34,12.31,6,3.63,10.13,1,7.58-4.69,8-9.2,5.12-1.43,8.19,4.92,2.25,7,2.25,7h-42l-11.67-2.66-10-8.4-9.63-10.24-11.88-8.82L923,1127l-37.28-23.34-12.9-25.4L814,1063.93l-19.66-6.15s-1.23-7,1.23-7.57,6.35,3.27,13.11,4.91,24.37,2.05,29.69.41,11.68-5.09,17.41-3.68,4.09-2.26,6.55,4.09-44.44-36.86-48.53-43.82,3.89-6.35,9.83-9,17.4-2.25,21.7,2,2.26,12.49,10.86,10.64,10.44-7.57,21.5-5.73-2.05,12.49,13.72,5.73,28.87-14.74,28.26-24.57,1-18,6.14-17.2,14.54,8.19,11.06,14.33-14.34,9.22-16.28,15.36-19.56,19.87-17.3,24.37,14.74,7,20.47,4.1,18-5.12,18.23-15.36,1-12.29,7-7.78,13.93,6.55,3.28,15.15-12.7,3.89-27.24,12.49-33.36,5.53-42.58,14.75-11.68,8.8-2.06,17.4,16,19.66,17.1,25.09"/><path class="cls-5" d="M962.3,1032.6c-7.33,1.63-13.72,3.48-3.48,7.78s14.13,9.4,8.4,12.89-14.75,9.84-12.7,13.12,8.19-10.88,18.84-13.12,17.41-3.06,12.9-7S975.2,1029.73,962.3,1032.6Z"/><path class="cls-3" d="M980.53,1053.27s-11.88.62-14.95,8.61,24.78-.2,28.67,2.66,5.32-8-1-9.83A42.06,42.06,0,0,0,980.53,1053.27Z"/><path class="cls-3" d="M909.16,955.09c-4.18,1.65,3.69,6.45,4,15.36s-2.15,11.67,2.91,11.21-.15-12.14,8.45-12S915,952.78,909.16,955.09Z"/><path class="cls-3" d="M706,724.64S691.84,739,693.84,743.29s2.87.46,6,16.74,7.23,25,7.69,20-11.67-41.78-8.9-43.62,4.91-8,7.52-7.68,10.3,12,11.83,17.66,9.21,4.61,5.68-.15-15.55-16.89-14.53-21.27,9-17.89,10.54-18.82,10.44-2.45,14,0a14.83,14.83,0,0,0,7.68,2.44l-5.07-11.78-9.36-3.25L718,695.44,705.3,719.92Z"/><path class="cls-5" d="M452.11,876.15s9.6,38,13.19,46.21,18.86,26.82,19.42,25.18-2.4,18.43,0,25.4,8.95,12.18,12.84,17-1.23,7.42,1,11.06-1,4.87,8,6.1,9,.44,11.67,4.52,2.46,4.65,5.94,4.36,2.26,1.29,0,3.27-3.91,1-8.09-1.92a65.51,65.51,0,0,0-10.34-5.71c-3.48-1.66-12.68-10.87-14.73-15.17s.81-8.57-3.08-10-9-5.75-10.64-9.64-9.17-21.44-9.17-21.44l-14.78-45.53-5.55-26.41,4.31-7.3"/><path class="cls-5" d="M800.77,734.24s19.62,60.4,18.6,83.13,4.71,31.74,9.21,36.86.62,27.44,0,30.1,1.58,7.74,1.58,7.74,11.75-19.82,12.87-32.31-10.15-73.93-12.4-81.5-13.93-28.67-16.79-33.18S800.77,734.24,800.77,734.24Z"/><path class="cls-5" d="M770.31,1073.22a30.19,30.19,0,0,0,4-18.3c-.92-11.06-11.44-24.27.12-33.18s18-10.13,16.16-20.27-6.45-18.12-3.07-21.81,11.06,3.07,15.05-9.21-6.36-20.59-1.8-24.27,12.55-12.08,14.09-14.95-3.69,14-2.15,21.09S812.1,976.59,809,984s-9.13,37.17-8.25,44.54-6.39,29.28-6.39,29.28l-7.47,11.88-4.61,3.56h-12"/><path class="cls-5" d="M460,770.83s14.54,17.84,14.54,39.46-3.68,24.49,4.92,30.22S504,860.37,504,860.37l-38.7-8.8-2.46-11.06L460,770.83"/><path class="cls-5" d="M470.59,855.09s23.17,6.92,18.67,11.63,0,29.29,2.87,36.45,40.13,51.2,52.62,64.72,53.86,53.08,55.09,59.69,14.34,5,14.34,5l-7.27-9L590,1003.08l-15.82-15.89-23.73-20.05-18.89-19.81-15.48-16.1s-21.3-28.36-22.94-42.8c-1.23-2.25-2.15-4.5-2.15-4.5l3.79-9.32,6.86-11-.33-1.64-4.38-2.91-19.43-3.46-6.92-.55"/><path class="cls-3" d="M537.74,814.72s-8.6,4.92-21.17,2,20.91,12.1,29.52,38.38,18.12,61.29,8.6,71.43,55.59,41.77,74.33,72.8,16.9,37.65,16.9,37.65l23.73,9.14s-4.84-29.13-20.8-71.17c-10.35-28.57-25.25-68-25.25-68l-25.66-65-3.44-8.47-7.71-20.37S581,820.24,537.74,814.72Z"/><path class="cls-5" d="M525.4,1018.15s21,6.05,43.31,4.41c29.49,5.53,31.29,7.41,37.48,7.38s6.76-1.44,15.36,1,13.92,1.2,25.19,4.49,22.91,10.66,22.91,10.66-61.25-14.27-75.15-16S530.61,1019.87,525.4,1018.15Z"/><path class="cls-5" d="M746.08,822.08l-4.79,3.69-4.66,21.29,4.8,8,8.92,3.4s-7.16-13.52-6.86-16.36S746.08,822.08,746.08,822.08Z"/><path d="M699.72,747.14s35.33,70.44,46.36,74.94C726.4,789.44,699.72,747.14,699.72,747.14Z"/><path d="M741.29,825.77s-9,20.44-9.32,23.65,14.7,8.92,18.38,9.07-12.59-8.76-12.59-10.3S741.29,825.77,741.29,825.77Z"/><path class="cls-5" d="M750.9,869.54s-7.51,87.9-9.15,101-9,71.67-5.73,79.66,14.88,18.22,14.88,18.22l-33.11-8.8,4.51-30.92,11.26-69.23Z"/><path d="M750.9,869.54s-37.2,178.21-33.11,190.09c5.11-15.31,11.88-81.93,18.84-100.15S750.9,869.54,750.9,869.54Z"/><path class="cls-5" d="M752.2,717.4s29.08,66.59,30.92,95.77c1,6.86,7.17,1.74,5.53-2.35s-27.34-93.1-27.34-93.1Z"/><path class="cls-5" d="M749.13,735.77s2.91,55.59,11.36,65.73,15.67,19.2,17.36,21.5-19.36-11.77-20.74-17.09S744.06,741.76,749.13,735.77Z"/><path class="cls-5" d="M800.77,946.18s-29.45-98.27-30.21-109.75,6.62,49.13,11.54,60.6,18.79,61.79,15.13,67.55-18-59.17-22.1-64.79,21.4,81.92,21.4,81.92,8.91-4.52,8.91-7.74-2.05-25.74-2.05-25.74Z"/><polygon class="cls-4" points="512.3 631.48 529.31 674.79 579.41 732.08 595.8 743.74 621.54 756.65 634.4 762.03 635.93 766.3 642.15 762.75 669.65 759.09 658.43 770.25 634.93 789.44 620.04 780.09 614.43 773.09 597.54 761.41 580.95 750.36 560.22 735.92 544.86 719.15 527.19 699.7 519.82 690.92 504.95 670.77 501.55 653.67 499.78 639.77 498.63 634.74 512.3 631.48"/><path class="cls-2" d="M686.77,562.75l19-9.75s20,.35,21.2,1.61,11.47,7.87,11.88,8.5,2.45,5.8,2.45,5.8l-2.45,6.71-7.63-1.73-21.45,1.73-13.11-3.07-12.2-3.63Z"/><path class="cls-6" d="M691.1,566.85s-2.08-.5,1.2-1.65a29.36,29.36,0,0,1,6.65-1.38l16.9.49s8.29.25,8,1a9.91,9.91,0,0,1-2,2.21l3.74-1.54,4.13-2.18-3-2.22L721,559l-7.17-.91H699.44l-6.52,1.53-5,3.51-.1,1.27.36,2,2.94.45"/><path class="cls-2" d="M571,560.6s1.61,5.37,10,7.1a138.86,138.86,0,0,0,19.46,2.09l9.3-5.08,2.58-1.6-3.58-5L603.3,555l-12.6-.92-10.52,2.07Z"/><path class="cls-4" d="M471.42,609.31s9.92,18.23,16.92,19.76,5.56,2.68,9.28.16,10.68-10.7,10.68-10.7l-.92-13-7-23.88.78-8.78.55-6.25-5.53-7.17-7.58-17.39-4.81-7.49-9.32-3.38L465,536.51l-3.49,10.57.72,23.43,5.53,29.69,3.66,9.11"/><path class="cls-6" d="M580.94,559.46s-4,1.21-4.06,2.14,2.46,5.61,3.08,5.8-4.92-1.88-4.92-1.88L571,562.44l-.93-1.69,5.73-2.68,7.1-2.23,14.36-1.29,5.38,2.21s6.22,2,6.52,2.92,1.15,3.87,1.15,3.87l-3.6,2.5-6.48,1.49s2.94-.87,3.25-1.95-4.07-3.77-4.07-3.77l-2.61-2.6-12.13-2.3-3.7,2.54"/><path class="cls-3" d="M545.32,562,539,580.38l12.44,18.67L579,617.3l19.25,14.91s4.11,19,4.41,22,4.53,19.65,4.53,19.65l6.6,22.15,5.15,21.75-11.75,2.52v15.83l-9.91,3.61-20.63-8.62-33-59.55-38.4-92.66,13.21-20.78Z"/><polygon class="cls-7" points="635.93 720.25 621.21 721.18 618.88 731.62 623.03 745.75 628.1 754.35 640.61 760.03 669.88 756.81 682.93 747.13 693.84 733.77 693.84 721.18 675.99 717.4 635.93 720.25"/><path class="cls-3" d="M760.8,545.74c.15,5.57.3,8.64-1.69,15.4s-5.37,27.11-4.92,33.52-2.15,5.13-2.3,10.15c-.13,4.32-3.12,16.77-5.81,25.14-.43,1.35-.85,2.59-1.26,3.68-2.91,7.84-23.18,60-26.87,66.07-1.78,2.94-6.76,10.83-11.79,18.85-1.11,1.77-2.23,3.56-3.3,5.29-4.2,6.74-7.89,12.77-9,15-2.76,5.39-10.9,13.52-10.9,13.52l-3.29,1.8-1.79,1-1.68.8-1.18.48-3.19,1.44-14.87,4.87-19.26-.37L626.26,757l-4-1.17-7.62-2.26-7.68-8.7-9.32-14.13-4.3-13.93.92-6.39,10,3.86,14.64,5.3,5.24,3.74s-2.73,18.58,4.18,25.64S637,754.5,642,753s9.6-2,15,.61,19.12,0,24.77-8.75,12.4-18.87,5-20.19-14.33,2.2-17.5.3-16.07-2.38-16.07-2.38l-8.15-1.38L658.24,712l-3.57-3.41,6.27-9.52,28.29-11.93s4.9-3,3.6-5.9,1.31-9.69,1.31-9.69l8.61-2.56,9.66,7.64L711,662.3l-4.52-9.74,11.21-9.51,24.57-33.72,3.23-14.67-7.22-12,3.12-13.72,14.08-26.85,1.93-23.13,1.53,3.74s.69,8.52,1.92,11.13S760.65,540.18,760.8,545.74Z"/><path class="cls-4" d="M610.86,700.48s3,10.61,0,11-4.17-7.87-8.62-9.36-11.54.14-15.78,1.78-4.57,3.72,0,8.62,6.67,20.08,6.67,20.08l14,14.92,6,7.81,2.68,2,8.45,1.72h5l-3.77-5.46a22.18,22.18,0,0,1-4-4.66c-1.74-2.76-.92,2.36-.82,3.79s-14.44-9.31-16.69-16.69-14.85-26.57-5.84-21.42,12.19,9.34,22.32,9.65,21.05-1.43,28.14-2.51,25.52-10.55,29-13.23,5.73-5.25,2.56-3.72-12.07,4.71-15.2,4.3-12.39-1.43-12.39-1.43l-24.12-7.23L616.33,692l-5.43-1.82Z"/><path class="cls-5" d="M599.44,676.59s-9.81,10.8-2.29,17.48c2.77,1.9,7,.46,8.6,1.38s5.53,6.07,8,7.45,10.14,10,14.44,11,7.16-.06,11.36-.69,5.53-1.46,10.06-1.46,8.64.23,8.64.23l4.34,2.07s2.09-.84,1.66-2.45-1.74-4.38-3.73-4.07-3.61,2.45-8.26,2.07-8.79,6.6-16.32,1.69-21-12.41-22.19-15.3-2.38-4.07-1-4,11.49-.33,11.49-.33l-6.88-3.23-10.14-4-5-5Z"/><path class="cls-7" d="M641.78,681.2a6,6,0,0,1,2.8-.31c1.17.28,5.5,2.38,5.77,2.49s.69,1,5-.17,8.41-2.18,9.63-2.12a28.91,28.91,0,0,1,5.48,1.66,44.61,44.61,0,0,0,6.35,2.35c1.68.32,5,1,6.95.29a2.94,2.94,0,0,0,2.15-2.14l-11.6-5.08L670,676.38l-7.55-.44-9.23-.89-6.9-1.23L637.16,675l-1.23,3.73,1.85,2.26Z"/><path class="cls-4" d="M612.33,673.21s-4,2.59,2.57,6.54,22.59,3.09,26.88,1.45,7.44,2.7,10.47,2.6,10.62-3.34,14.25-2.6,9.33,5.47,17.3,4.19,11.8-.92,13-2.15a64.62,64.62,0,0,0-7.56,3.86l-2.4.78-6.36,1.25-16.64.25-3.73,1.13-6.2.41-6.5-.36-18.12-.15L615,687.9l-11.31-5.22-1.43-1.3s-3.28-6.23-5.07-7.61-1.69-1.85-.51-2.26S607.14,668,607.14,668l7,.72.35,3.53Z"/><path class="cls-7" d="M612.42,692s13.53,15.64,25.05,16.31,33.89.35,40.7-7.53,14.75-14.87,14.66-15.68-14.4,3.19-14.4,3.19l-4.51,2.61-21.49,3.63-24-3-5-3-10.34,1.28Z"/><path class="cls-7" d="M641.76,680.5l.25-1.77,5.34-2.73,5.94,4.5,1.74,1.31,5.48-3.59,3.3-.43s3.71.43,5.25,2.79,3.38,3.27,4.5,3.22,5.94,1.59,10.24,1.59,9.73-1.39,11.37-3,.1-6.62,2.15-8.37,10.44,3,11.36,5.69,1.23,10.29,2.25,13.67,5.53-1.23,6.05-4.92-3.18-15.66-3.18-15.66l-7.37-20.24-17.92-25.08-5.94-4.61-2.05,9.34-5.89,11.28-17.86,6.37L641,658.71l-7.83-1.07-1.49,13.11,2.56,8.09Z"/><polygon class="cls-3" points="642.01 574.09 645.05 604.81 633.17 615.05 621.55 629.18 617.86 620.58 617.86 598.74 627.55 576.75 637.21 568.92 642.01 574.09"/><path class="cls-7" d="M571.9,563.82l6.9,4,18.43,3.76,15.1-2.61,7.94-2.46,5.39-.3,7.51-1,6,5.5s-9.37,13-14.75,24.69-3.07,20.17.31,21.91L628.1,619l-14.74,24-1,13.06,5.4,8.35L635.47,661s3.48-.51,1.74,1.59-1.74,17.61,3.48,17.76-6.09,5.53-17.09,2.61-13.83-6.09-11.27-9.72-9.57-4-13.18-.41-9.6-12.37-7-15.76,2.14-.68-.4-3.37-3.27-14.2-2.22-14.66-7.55-11.68-12.31-14.29-13.2-6-21.81-12.59-26.11-29.9-24.42-35.38a55.1,55.1,0,0,1,4.61-10.39l9.68-4.41s5.41,5.33,5.54,5.56,14.12-4,14.12-4Z"/><path class="cls-4" d="M672.77,558.12s-6.89-4.3,2.43-9,25-9.61,29.85-11,17.76-7.76,17.76-7.76h22.73l8.37,10.45,1,10-.2,3.23s-4,11.6-5.12,17.5-6.76,4.56-12.24,1a36.45,36.45,0,0,1-9.12-9l-9.36-5.43-7.18-1.49L697.21,559l-7.68,1.9-5-.36Z"/><path class="cls-3" d="M675.86,563.41l7.1-1.57s-4.3,6.82-3.93,9.13,6.2,22.59,6.2,22.59l12,8.79,3.17,8.24-3.78,9.83,3.78,9.76,7.74,6.83-1.28,5.68s1.51,4.15,2.2,5.53,3.43,7.89,3.43,7.89-2-2.51-1.51-.59,1.85,6.52,2.84,7.45,0,10.24,0,10.24-4.61-13.67-7.37-17.1-7.14-13.58-14.59-21.22a95.67,95.67,0,0,1-12.21-15.54l-6.91-12.21L668,576.34l4.6-10.75.62-3.94h2.3l.38,1.76"/><path class="cls-5" d="M676.41,549.47s-5.69,5.14.76,3.53,13.82-6.6,18.2-7.25,13-1.74,13-1.74l-17.15,11.36,20.4-9.62,11.63-1.48s-9,10.42-12.54,11.72-11.29,2.08-11.29,2.08l-3.53,1.19-5.84,3.49s-3.43,2.18-3.5,2.25-4.32.42-3.61,0,3.17-3.88.6-3.27-8.22,1.42-8.22,1.42l-2.24-2.74L668,552.35l4.95-4.07Z"/><polygon class="cls-8" points="591.71 493.02 594.93 518.8 617.25 537.48 656.15 540.17 694.04 535.8 727.21 517.74 733.97 477.23 712.47 457.98 703.97 451.22 591.71 493.02"/><path class="cls-7" d="M591.7,493s12.49,27.42,23.22,33.72,21.78,1.65,21.11-1.1,3.85,7.9,7.84,9,17.1-1.84,20.78-4.3,8.5-10.85,10.14-4.81,5.73,10.54,15.05,5.94,27.34-13.67,30.1-26.11,7.68-28.26,1.69-36.86S704,456.47,704,456.47l19.3-9.14,28-4.61,14.13,16.75L768,476s-9.55,32-12.16,39.52-1.84,22.52-2,26.54-3.07-10.26-19.35-9.8-42.39,10.24-47.31,11.19-16.13,9.72-17.2,11.63-16.43-6.38-16.43-6.38l-23.12-1.84-23.73-7.17s-29.64-3.28-30-3.89-14.43-1.23-14.43-1.23l-14.75-1.69L547,520.29l10.29-21.24L577,493.56Z"/><path class="cls-4" d="M621.27,560a68.29,68.29,0,0,0-24-11.36s-13.67-2.82-22.88-.05-17.21-1.54-22.89-7.07,5.53-8.6,15.31-11.83,12.18.31,21.34,4.76,13.11.31,21.87,3.69l31.3,12.06,7.65,9.44,7.28,17.14,2.61,15.88-3.38,19-9.26,13.47-1.7,9.75s-6.09-6.63-5.32-15.39-.31-9.37,2.61-27.9-18-31.08-18-31.08l-.46-.48Z"/><path class="cls-4" d="M640,604.81s-34.63,30.36-32.79,48.86,27.56,8,33.44,8.63,14.43-11,21.93-12.44,17.69-3.53,18.66-7.17a22.06,22.06,0,0,1,1.72-4.88l-14.62-6.43-24.21-22Z"/><path class="cls-3" d="M573,564.44l7,4.53,20.86-.34,10.63-4.76,10.79-.32,6.15,7.26,4.3-4.4,2.76,1.85v4.3s-14.74,5.63-23.14,7.27A125.68,125.68,0,0,1,594,581.65l-7.54,1L579,578.85l-7.68-7.73-2.76-5.22,1.74-2.79Z"/><path class="cls-4" d="M501.84,562,500,569.79v0a4,4,0,0,0-.58-.9l0,0c-1.89-2.29-6.31-4.58-7.2-6.88-.61-1.57-1.57-4.93-2.4-8-.88-3.21-1.61-6.06-1.61-6.06l-3.79-8.42-4.5-4.72-2.73-.31-5.44-.61s-9.75,10.5-8.83,17.9,1.84,29.31,6.66,34.11,5.32,6.77,7.16,4.41,1.08-4.2.65-4.81,7.24,2.66,6.11,4.81-12.64,16.18-12,19c-4.76-8.35-7.24-12.79-7.24-12.79l-5.63-16.15V555.25l1.33-13.19,1.95-6.78,8.78-9.93.45-.25L492.46,513l5.7,17.35Z"/><path class="cls-4" d="M614.84,756.06l-36.91-23.88-25.8-21.75s-18.12-18-24.27-29.64-14.74-31-15.35-35.85-7.48-8.8-12.3-8.7-8.9-3.07-5.73-5.12,10.24-4.1,9.52-19.66-2.66-21-4.6-24.77-.93-11.89.61-15.11a2,2,0,0,0,0-1.79l1.87-7.84-3.68-31.58L492.46,513h0l15.11-10.4,70-20.06,70.14-20,11.68,2.16,1.07,5.16S562.45,500.83,553.39,513c-10.53,14.17.94,15.44,1.6,20.25.28,2-5.77,5.79-4.45,6.22,4.51,1.42,25.26,10.21,24.93,13.36s-24.06,20-28.92,20.54c2.91-3.6-1.18-6.46-9-4.41s-17.4,3.26-9,18.73,34.19,43.72,35.83,56.82,1,40.3,7.58,55.17,7,25.6,10.8,26.69,2.72.3,7.22,1.71S614.22,755.25,614.84,756.06Z"/><path class="cls-7" d="M644.21,633s-2.8-6.66,7.44-20.18-1.75-46.18-5.43-51.65-6.6-10.73-8.67-11.56-9.41-4.07-3.79-7.52,5.19,1.33,14,2,10.85,3.16,15.15,3.37,13.8,11.88,11.72,21.5-3.41,18.81-1.07,29.77,3.3,15.16,3.3,15.16l3,7,3.07,3.64,1.57,6.81,0,2,0,.62a6.54,6.54,0,0,1-.5,1.83c-.33.55-1,2-1,2l-5.33,4.54-9.83,3.72-3,.23h-4.25l-7-2.38L648,640.08,644.21,633"/><path class="cls-8" d="M651.65,555.08c-5.17,2.41-4.61.59.67,8.47s11.11,23.85,7.42,39.06-4.82,10.75-9.22,18-6.45,14.14-.76,17.82,23,4.75,25.36.93,2-10.55.69-15.73-5.78-10.09-7.47-20.69-4.15-38.86-2.3-41.31S659.69,551.33,651.65,555.08Z"/><path class="cls-3" d="M633.17,617.3s4-2,4.66-2.24-16.9,13.57-8.91,22.6L625,634.19l-1.43-4.71,1.84-5.42,7.73-6.76"/><path class="cls-7" d="M683,564.36l4.84,0,.51,1.21,2.79,2,3.43.81,3.41,2.57,24-.23,2.87-3.32,5.73-1.74,4.71,3.79,1,1.06-.69.58,8.24,3.33s-3.58,4.61,1.74,12.18.72,25.4-3,31.54-11.06,26-17.92,30.1-11.95,6.12-14.73,3.68-12.71-19.69-12.71-19.69l-20.35-38.65.47-26Z"/><path class="cls-8" d="M686.26,540.82c-.62.71-6.4,7.26,1.74,4s17.66-10.6,27-11.83,10.23-5.19,20.17-1.84.87-6.91-6.5-6.14S688.22,538.58,686.26,540.82Z"/><path class="cls-8" d="M759.17,481.34l-7.28,56.45s1.23,14.6,2.77,16.29,2.22-32.32,3-33.6,3.8-5.72,3.8-5.72l2.31-20-4.55-13.45"/><path class="cls-3" d="M646.22,498.94a24.34,24.34,0,0,0,11.3,2.61c5.91-.31,12.43-.08,19.27-3s18-5.45,27.87-4.6,18.61,1.3,18.61,1.3l-7.63-1.92-11.4-1.57-8.49.19-9.13,1.5L679.86,496l-4.34,2-4.65,1.07-7.68,1.12-5.14.23-4.19-.08-2.13-.23-1.72-.31-1.66-.33-2.13-.51"/><path class="cls-5" d="M551.46,569a52.67,52.67,0,0,1-4.45,4.92c-1,.71,13.1-5.53,16.17-6.35s-.61,10.44,12.7,13,15,2.05,15,2.05-4.91-3-12.39-7.53-7.61-9.24-6.62-10.43c.51-.61-1.46-2.81-.07-4.26s6-2,6-2l3.06-2.58,10.76-1.33,16.43,2.25,4.2,5.74,4.09,1.92,15.26,1.57s-17-15.69-34.45-17.31c-2.12-.76-4.52-1.41-4.52-1.41l-3.26-.41-9.75.82-10.81,4.89-8.73,6.23-5.93,6.77L551.46,569"/><path class="cls-8" d="M708.5,551.77s10.6-.3,14.06,0,3.85.49,5,1.84.84,3.15-1.69,2.69-13.26-.29-14.77-1.22S706.58,552.62,708.5,551.77Z"/><path class="cls-8" d="M580.27,548.26s-10.94,1.87-3.26,4.53,15.87-1,16.38-2.26-1.49-3.53-2.19-3.65-9.62,0-10.93,1.38"/><path class="cls-8" d="M573.11,565.17a35.34,35.34,0,0,0,10.76,7.9c7,3.38,27-1.54,33.58-2.87s9.57-1.24,8.21,1.38-8.41,9.3-10.15,12.1-17.51,8.53-28.26,6.49-25.14-5.18-27.73-8.58-15.79,5.71-3.5,19.94,31.74,19.76,40.65,14.23,12-9.93,16.79-14.64.61-11,.61-11l6.29-4.66,6.22-7.39,3.26-2.5,2.87-8.08-1-1.63-5.42-1.2-6.37-.27-19.69,3.1a42.93,42.93,0,0,1-19.21.16c-10.64-2.31-7.88-2.53-7.88-2.53"/><path class="cls-8" d="M680.2,563.55s-4.34,3.37-3.34,8.7,4.59,21.3,10,25.65,12.6,3.43,8.19,13.05-4.43,11.26.55,17.2,11.64,11.56,11.23,14.54,22.63-13.51,25.55-23.5-6.46-36.32-26.88-33.86c-14.35,1.52-16,.69-17-.39s-7-8.56-6.8-9.69a12.83,12.83,0,0,0-.5-3.67,28.55,28.55,0,0,1,1.72-5.22c.82-1.38,2.91-4.71,2.91-4.71l-5.67,1.9"/><path class="cls-8" d="M693.13,567.82s1.77,3.93,11.68,7.8,16.88-3.38,20.54-3.9,6.19-.75,5.88-1.44-3.86-2.74-6.44-2.12S714.46,570,714.46,570s-8.26,1.09-14.18-.3-7.15-1.87-7.15-1.87"/><path class="cls-3" d="M688.72,574.24s7.62,1.63,10.64,1.38,7.43,3,10.81,3.85,12.52.07,13.77-.36,6.09-4.92,6.65-6,.36-1.64.87-2.15,4.87-.11,4.41,1.12-7.27,6.76-11.52,9.22-13.93,4.1-18.07,3.07-9.89-1.13-13.47-3.63-6.44-5.74-6.55-6.56S688.72,574.24,688.72,574.24Z"/><path class="cls-5" d="M633.17,579.66s9.63,4.57,8.78,10.51-1.28,13.89-4.37,16.84,12.55,7.88,12.55,7.88.5-10.08,1.08-23.29c.45-9.93-4.86-20.62-4.92-25.54s-4.06-11.6-4.06-11.6l-9.06,1.91L634,562Z"/><path class="cls-8" d="M586.79,662.3S572,672.16,578,686.61l3.66,6.77s-1.56-14.9,0-18.89,5.1-12.19,5.1-12.19"/><path class="cls-8" d="M624.23,691.69s6.17,13,25.68,10S676,690.2,676,690.2H665l-11.12.72-23.18-1.13-6.49,1.9"/><path class="cls-8" d="M642,679.71s-3.14-3,0-4.23,7.09-7.75,6.92-9.75,1-4.77,1.71-5.08-1.58,8.15.65,11.3,6.76,5.53,8.22,3.3,2.15,1.77,4.3,2.54-4.3.83-6.61,3.41-3.53.35-6.29-.88S647.47,675,642,679.71Z"/><path class="cls-3" d="M658.09,658.59s-6.72,3.69-2.88,9.37,6.82,6.77,7.22,8-3.54-17-2.92-18.27S658.09,658.59,658.09,658.59Z"/><path class="cls-8" d="M686,638.4s-17.41,9.62-21.71,12.18-12.39,7.77-10.85,8.13,7-5.83,8.5-5,6.25,1.71,5.43,5-1.74,7.33-.11,11.32,2.77.82,5.23-4.3,8.08-17.62,15.56-19.31,10.34-1.78,8-4-4.71-8-7.17-7.64S686,638.4,686,638.4Z"/><path class="cls-8" d="M642.17,724.54s-12,3.24-9.15,9.49,17.61,11.26,25.7,7.16,10.34-4.4,7.47-9.72-3.38-8.91-7.27-8.91-15.28.47-16.75,2"/><path class="cls-3" d="M701.74,722.81l.17.15A.28.28,0,0,1,701.74,722.81Z"/><path class="cls-4" d="M746.08,630c-.43,1.35-.85,2.59-1.26,3.68-2.91,7.84-23.18,60-26.87,66.07-1.78,2.94-6.76,10.83-11.79,18.85l-1.66,2.66-1.37,2.19c-.09.15-.17.29-.27.44-4.2,6.74-7.89,12.77-9,15-2.76,5.39-10.9,13.52-10.9,13.52l-3.29,1.8-1.79,1-1.68.8-1.18.48-3.19,1.44-14.87,4.87-19.26-.37L626.26,757l-4-1.17-.15-.82-.62-6s7.78,7.07,10.91,8.1,11.22,1.58,15.62,2,21.81-2.27,21.81-2.27,8.06-1.9,11.86-5.68S698.23,727,700.9,723.79c.56-.66,1.12-1.28,1.65-1.84a57.64,57.64,0,0,0,1.73-9.41c1.63-12.51-1.74-20.39-4.71-24s-2.86-8.11-1.54-8.82,5-3.27,6.78,2.16,2.34,10,5.2,14.06,9.52-.47,10.35-10.28,6.14-19.76,8.29-23.39,11.26-27.4,13.72-30.31A7.76,7.76,0,0,1,746.08,630Z"/><path class="cls-5" d="M693.84,684.62A18.44,18.44,0,0,1,698,681.2c2.08-1.11,3.61-1.27,4.61,1.19s.46,3.69,1.15,4.61S699.21,686.53,693.84,684.62Z"/><path class="cls-5" d="M517.71,645.25a4.47,4.47,0,0,0,5.34-2.2c2.05-3.43,6-9.37,6.26-9.57s-3.4,1.13-2.17,13.77S531.44,677,537,685s10.24,9.29,11.27,5.19.89.78,5.15,9.5,11.43,15.11,11.64,12.84,4.84,1.87,6.61,6.44S581,731.57,581,731.57H575.1L553.39,711.5l-10.27-9.36L529.9,682.06s-11.49-22.17-12.19-25-2.17-10.44,0-11.78"/><path class="cls-5" d="M504,615.76s7.39,11.27,5.95,15.36-8.13,3.26-10.16-3.69C503.49,623.85,504,615.76,504,615.76Z"/><path class="cls-5" d="M484.34,557.09s1.64-2.35,3.28-1.33,4.89,3.75,3.21,5-2.34,1.2-2.34,1.2l-6.4,6-3.79,6v3.61l4.82,3.25,3.89,4.09,4.29,4.31,1.34,4.26,2.53,5.33s-.18,1.67-1.3.44-6.07-7-7.85-9.42-5.8-6.32-8.14-6.18-5.49-2.94-5-5.29a39.79,39.79,0,0,1-1.22-4.15l.72-6.19,4.35-6.14,4.76-3.07,2.84-1.75"/><path class="cls-3" d="M478.32,540.48s-4.9,5.84-1,6.3,8.19.61,7-1.23S480.14,538.72,478.32,540.48Z"/><path class="cls-9" d="M751.89,403.1s26.11-3.89,39-4.51,29.69-8.39,34.4-8.6,17.53-3.07,17.32,0l-.22,3.07-20,6.35-23.76,10.86-45.93,4.3L693,430.74l-3.49-3.31v-9.37l6.56-7.59,20.68-5.32Z"/><path class="cls-3" d="M486.34,567.13c-2.61,3.8-3,8-2,9.61s4.71-4.9,5.33-7.77S488.24,564.36,486.34,567.13Z"/><path class="cls-3" d="M494.28,584.94c-2.58,1.38-.68,3.49,1.4,7.48s6.07,6.49,5.46,3.19S495.81,584.13,494.28,584.94Z"/><path class="cls-3" d="M480.17,551.61s6.12-1.07,5,1.24-8.16,5-9.35,6.5-6.52,4.6-5.9,10.44,2.45,11.06,3.17,14.34.73,4-.72,3.58-5.41-8.71-6-11-.07-17.42,1.39-19.06,3.38-4.37,6.14-5.5A13.56,13.56,0,0,1,480.17,551.61Z"/><polygon class="cls-9" points="440.67 498.65 429.98 505.79 437.04 511.38 489.78 500.17 546.95 481.89 551.46 472.37 533.95 466.96 503.54 474.82 475.81 485.29 440.67 498.65"/><path class="cls-10" d="M720.93,347.23l-22.49,1.5L523.35,402.79l-65.63,23s-14.54-46.08-16.07-53.76,1.53-21.19,0-23.34,63.28-57.44,87.85-69.11,44.42-18.54,57.69-19.1c9-.38,19.51-1.94,25.92-3.85,3-.9,5.09-1.88,5.78-2.85,2.15-3.08,4.91-7.69,9.21-5.84s24,9.11,25.8,12.54,7.38,12.65,10.75,15.41,15.36,25.8,18.13,29.79,18.43,14.14,21.81,18.44c2.25,2.87,8.78,12.19,12.87,18.07Z"/><path class="cls-3" d="M483.42,596.21s-2.45.8-.61,3.52,4.52-.35,7,2.72,9.05,3.79,7.34,10-2.23,6.64-5.51,10.38-4.73,6,1.42,4.46,12.2-12.2,10.92-16.9-9.57-9.47-9.57-9.47-5.05-.66-5.5-2.45-1.28-7.18-2.86-7.35S483.42,596.21,483.42,596.21Z"/><path class="cls-4" d="M500,569.77l-.58-.9A4,4,0,0,1,500,569.77Z"/><path class="cls-5" d="M501.84,562A27.49,27.49,0,0,0,500,574.3c.46,7.35,6.3,27.64,6.3,31.53s-2.42-25.56-2.13-32.44,5.4-38.52,7-41.13,64.21-42.54,80.53-44.59,59.95-14.92,59.95-14.92l-16.18-2.48-76,17.81-53.45,16.59L501.84,513V562"/><path class="cls-3" d="M675.81,522.28S715.54,509.35,735.2,512l-3.84-.39-.63,0-1.55-.15-1.34-.09-3.85-.19-5.92.19-5.58.35-7.16.9-6.7.89L691,516.56l-9.42,2.92-1.81,1-1.92.81-1.25.66-.78.37"/><path class="cls-3" d="M575.47,499.14s18,5.86,21.76,6.09,19.58,1.46,22,1.54,25.83,6.83,25.83,6.83l-8.25-3.76-13-4.61-7.45-.92-7.68.62-6.45-.62L594,502.7l-7.58-1.13-5-1.19-3.78-.78-2.19-.46"/><path class="cls-4" d="M573,702.14s8.76,14,11.64,8.29,4.9,4.91,4.9,4.91l6.23,14.13,2.4,9.25-11.41-3.4-8.91-9.54-3.23-13.24Z"/><path class="cls-10" d="M698.5,413.19s-16.43,10.49-.26,9.88,31.84-12,47.2-12.91S789.51,406,789.51,406l-56.6,26-49.22,10.75-16.14,6.15-2.9-10.45L676.71,424l21.79-15.12Z"/><path class="cls-5" d="M662.4,761.87l-14.13,4.44-8.34-.34-.57.34h0c-1.12,1-.92,5.09,3.79,8.26,3,2-4.7,6.78-5.83,6.15-11.47-6.35-16.39.2-17.62-.72a117.43,117.43,0,0,1-20.55-15.49c-10.52-10-24.81-14.92-39.86-27.82S516.6,690,510.13,680.43s-13.5-31-15-37.38.51-7.73.21-7.88c0,0,10.63,2.49,8.75,4.56s3.15,4.7,3.56,7.52.61,6.5.61,6.5,4.52,13.49,5.94,14.74-.06,1.78-2.36.42-2.86.61-1.75,5.32,12.2,16.38,14.86,20.32,7.89,1.28,9,4,15.14,20.27,17.61,24.06,12.59,14.33,17,18.22,16.28,9.73,18.84,11.16,10,7.89,15.67,10.81c5.15,2.67,10.81,7.34,13.86,8.76l-.12-.06s5.17-4,8.71-4.66,4.06,1.84,6.88.77,1.18-3.23-9.88-4.81-18.28-7.94-21-9.09-21.11-14.2-23-16.82-8.36-8.88-8.36-8.88l8.21,1.43,21.5,16.05,11.82,9.91,6.07,2.61,5.3.46,8.14,2,20.25,3.3Z"/><path class="cls-11" d="M693,414.57s-10.35,9.11-11.27,17.4c-2.45,1.64-11.26,1.85-12.28,6.35s14.22,2.25,14.22,2.25L668,452.86l-95.15,24.78-37.27,5.12-4.62-.82s8.1-8.81,8.51-9.42-53.24,8.13-56,7.45-1.94-33.87-1.94-33.87L623.6,396.55l68-6.56Z"/><path class="cls-5" d="M640.49,765.05a4.77,4.77,0,0,1-1.13,1.26l.47-1.07C640.28,765,640.53,764.89,640.49,765.05Z"/><path class="cls-12" d="M457.71,425.83s114.53-71.26,157.21-84.17,91.91-11.67,101.69,0,21.61,33.18,21.61,33.18,7.22,3.69,8.65,7.78-1.87,7.78,1.32,11.88,6.06,7.58,3.7,8.6-54.57,9.62-58.87,11.47S572.2,442,557,448.36s-82.32,34.6-84.16,36.86S463.85,435.66,457.71,425.83Z"/><path class="cls-10" d="M511.38,476.45s-25,7.33-37.07,11.22-34.87,14-35.84,15.57-19.86,11.26-19.86,11.26l-11.85,20.63s-11.29-6.09-4.94-14.28,37.68-21.71,37.68-21.71l33.38-13.92S482.2,476.45,511.38,476.45Z"/><path class="cls-9" d="M717.46,342.23l-11.34-1.79s-13.3-7.15-13.67-8-6.75-8.44-10.13-13.81-18.74-15.2-28.72-23.5-23.81-20.28-26.26-23-.16-7.07,1.26-6.45,16.39-3.53,15.52-5.07-6.34-4.76-8.8-5.68a18.39,18.39,0,0,0-11.21,0c-3.82,1.32-10.42,1.74-11,1.78,3-.9,5.09-1.88,5.78-2.85,2.15-3.08,4.91-7.69,9.21-5.84s24,9.11,25.8,12.54,7.38,12.65,10.75,15.41,15.36,25.8,18.13,29.79,18.43,14.14,21.81,18.44C706.84,327,713.37,336.35,717.46,342.23Z"/><path class="cls-9" d="M783.51,406.65s-56.19,16.26-61,18.1-42.5,14-46.75,15.67-39.57,13.82-43.41,14.44-61.13,14.54-72,15.41-20.94,2.25-20.94,2.25l-7.63,2.92,4,2.76,149-29.33,99.7-32.56,6.91-7.44-1.85-5Z"/><path d="M646.84,618.12s-11.75,27.11,13.67,28.18C652.32,641.93,643.54,642.31,646.84,618.12Z"/><path d="M664.76,646.3s18.43-.13,9.47-28.74c4.17,10.13,4.09,20.76,1.64,24.37,2.84-1.16,8.83-4.31,8.6-8.53C685,636.86,678.07,647.68,664.76,646.3Z"/><path d="M631.2,637.91s7.22-6.37,12-.59c0,4-1.08,3.53-3.83,1.87S631.2,637.91,631.2,637.91Z"/><path d="M633.17,617.3s-15.26,12.71-4.25,20.36C622.37,636.09,616.84,626.21,633.17,617.3Z"/><path d="M741.34,572.55a56.58,56.58,0,0,1-12.05-5.87s-5,2.3-14.83,3.31c2.92-.4,12.71-4.69,12.71-4.69-1.2-.78-2.47-1.62-3.95-2.54-6.55-4.13-5.73-1.72-5.94,0a5.7,5.7,0,0,1-.67,1.69.2.2,0,0,1,0,.08l-.34.56a.05.05,0,0,1,0,0c-1.41,2.26-4,5-6.3,4.56-3.11-.58-10.67-.89-11.67-8.49a11.67,11.67,0,0,1-.11-1.24c-1.74-.29-1.37-.86-10.33,4.42,0,0,3.37,4.08,12.48,5.31-9-.71-14-4.4-14-4.4s11.36-11.17,26.52-10.14S732.64,564.26,741.34,572.55Z"/><path d="M622.88,564.84c-7.74-1.36-12.06.45-12.75.29,0,0-.92,1.44-9.93,2.41,7.06-2,8.72-3.67,8.72-3.67-1.83-2.15-5.23-6.21-7.85-5a26.79,26.79,0,0,1-1.69,2.91c-4.34,6.53-8.62,5.69-12.29,5.62-3.51-.07-5.92-4.06-6.15-8a9.59,9.59,0,0,1,.09-2.08c-1.73.21-5.13,1.72-9,3.68,0,0,3.51,5.33,9,6.64a41.16,41.16,0,0,1-12.39-4.84h0c-7.27,3.9-14.8,8.48-15.2,8.72,16.12-15.82,28.08-19.87,46.83-20C607.62,551.57,634.25,566.82,622.88,564.84Z"/><path d="M691.58,575.63s26,14.13,39-2.56C721.48,583.82,711.24,590.68,691.58,575.63Z"/><path d="M566.77,569.79s9.32,22.73,45.56,10C587.48,582.26,580,584,566.77,569.79Z"/><path d="M632.71,567.54s-5.43,13.92-18.64,22.63C631.48,577.47,630.66,577.06,632.71,567.54Z"/><path d="M681.24,571.58s5.84,14.39,16,20C684.5,584.33,681.86,579.61,681.24,571.58Z"/><path d="M673.56,598.74s1.9,15.37,7.68,22c3,3.48,3.26,10.6,3.26,10.6a20.48,20.48,0,0,0-4.64-10.45C675.71,616.1,673.56,598.74,673.56,598.74Z"/><path class="cls-13" d="M598.92,550.16h-.15"/><path d="M593.24,539.94s23.73.54,29.25,6c-.84-1.38-1.84-3.14-3.07-3.53,5.3,2.15,7.76,7.76,7.76,7.76s-.31-3.46-1.08-4.61,2.15,2.15,2.77,3.46,3,.92,2.3-.62l-.69-1.53s2.07,1.15,2.23,2.15,1.76-.64.87-1.72a6,6,0,0,1,2.93,3c1.27,2.46,1.77.88,1-.73,2,2.57,2.18,2,3,4.88s2.8,2.07,1.69,0c1,.65,1.89,4.17-1,6.06s-9,5.46-14.88.54-13-9.6-19.65-11.75-13.44-7.37-16-4.37a3.9,3.9,0,0,1,1.07-2.39,4.33,4.33,0,0,0-2.17,1.62,2.41,2.41,0,0,1,.83-2s-1.75.75-1.81,1.67c.35-1.73.62-2,.62-2s-2.18.09-2.51.65C587.63,541,592.57,539.92,593.24,539.94Z"/><path d="M679,563.72a6.72,6.72,0,0,1-3.09-.31,3.29,3.29,0,0,1-2.06-2.21,3.85,3.85,0,0,1,0-1.55,7.78,7.78,0,0,1,6-6.12,6.33,6.33,0,0,0-1.68,2.19,2.12,2.12,0,0,0,2.35-.11,6.6,6.6,0,0,0,1.31-1.88,5.5,5.5,0,0,1,3.69-2.45,3.31,3.31,0,0,0-2.09,2.81,13.82,13.82,0,0,1,6.14-3.67,5.08,5.08,0,0,0-2.94,2.24,88,88,0,0,1,9-4.61,21,21,0,0,0-2.48,1.71,41.37,41.37,0,0,1,30.11-5.49,16.81,16.81,0,0,0-4.77,1,5.84,5.84,0,0,0-3.37,3.34,5.16,5.16,0,0,1,1.94-2.77,5.43,5.43,0,0,0-4.14,3.6,2.34,2.34,0,0,1,.29-2.89,9.05,9.05,0,0,0-2.05,3.19,4.84,4.84,0,0,1-.52-2.37l-2.15,3.7a6.16,6.16,0,0,1,0-2.8c-.51,1.61-2.11,2.57-3.58,3.38q-6.93,3.79-14,7.39C687.28,561,683.16,563.33,679,563.72Z"/><path d="M673.56,526.74s-8.29,14,0,26.87C666.5,543.45,664.65,539.18,673.56,526.74Z"/><path d="M675.81,522.28s34-14.13,59.39-10.24C714.93,509.79,695.06,510.4,675.81,522.28Z"/><path d="M646.22,498.94s17.21,4.3,33.49-3.69,40.54-2.25,43.56,0c-6.81-1.33-29.13-7.06-45,2.05C675.81,499,658.61,503.24,646.22,498.94Z"/><path d="M575.47,499.14s24.42,6.76,39.45,6.55,36.73,11,36.73,11-26.33-14.79-36.73-13.21S588,501.8,575.47,499.14Z"/><path d="M635.47,524.12s6.91,17.51,2.92,23.35C641.31,545.32,642.38,536.26,635.47,524.12Z"/><path d="M689.23,626.52S712.06,655,713.8,673.21C711.09,656.62,707.15,642.49,689.23,626.52Z"/><path d="M701.1,640.54s9.12,10.75,11.37,15.57a64.26,64.26,0,0,0-12.09-17.71Z"/><path d="M581.41,689.79s-2.25-20.07,16.79-39.93C582.84,665.22,579.57,669.52,581.41,689.79Z"/><path d="M645.61,672.8s7-13.65,6.63-21C652.24,665.32,645.61,672.8,645.61,672.8Z"/><path d="M661.89,653.67s-1.92,20.05,6.45,24.12C665,672.26,662.27,665,661.89,653.67Z"/><path d="M629.42,727.68s27-10,49,1C662.8,720.71,655.84,717.23,629.42,727.68Z"/><path d="M476.2,536.1s-16.43,36.86-3.84,51.61C464.84,579.11,459,561.45,476.2,536.1Z"/><path d="M466.22,538.72s15.36-17.82,22.42,15.66a25.72,25.72,0,0,0,3.84,9.17s-5.06-24.83-9.83-28.37S472.36,529.81,466.22,538.72Z"/><path d="M488.49,561.91S478.43,572.2,479.35,575s9,8.6,11.91,13.44,4.76,9.44,3.91,10.36c0,0-3.22-8.83-9.06-13.43s-11.29-9.68-7.6-14.06A88.18,88.18,0,0,1,488.49,561.91Z"/><path d="M484.34,557.09s-16.79,10.65-11.26,21.71C469.29,570.3,471.55,562.52,484.34,557.09Z"/><path d="M476.66,590.27s8,11.47,18.72,10.65C487,598.15,484.55,596.72,476.66,590.27Z"/><path d="M469,557.09s11.87-9.71,18.63-7c-1.16-2-11.22-3.22-18.22,4.66C468.72,555.51,469.64,556.14,469,557.09Z"/><path d="M461.41,537.23s-2.46,38.63,0,46.45,7.53,22.77,10,25.63-14.11-21.09-13.7-30.51S456.7,540.71,461.41,537.23Z"/><path class="cls-10" d="M644.13,260.57s-26.43,2.46-1,21.5,35.18,22.12,35.86,17.82S650.86,258.91,644.13,260.57Z"/><path d="M774.31,445.49S722,448.56,679,463.92s-56.47,10.83-109.3,27.23-100.14,49.1-115.35,50.48-47.91-.15-51.14-10.9,11.21-18.59,17.82-20.27,79-29.34,116.93-34.66,109.76-22.32,124.09-28.88,125.53-39.11,138.23-44.84,49.76-16.39,41-5.53S781.07,442.42,774.31,445.49Z"/><path d="M769.09,451.16c.71,1,2.38,1.21,3.07.23-.14,4.91-2,9.59-3.82,14.15L770,465a76.24,76.24,0,0,1-3.09,9.76,3.33,3.33,0,0,0,1.47.07,14.15,14.15,0,0,1-1.43,4l1.13.25a19.52,19.52,0,0,1-2.7,8.15,2.25,2.25,0,0,0,1.66-.75,8.72,8.72,0,0,1-1.4,6.28,1.36,1.36,0,0,0,1.19-.49,11.13,11.13,0,0,1-1.61,6.56l1.23-.06a6.54,6.54,0,0,1-1.59,4.86l1.35.17a54.69,54.69,0,0,1-2.71,6.64c1.29.32,1.29,2.22.63,3.37s-1.72,2.24-1.62,3.57a11.74,11.74,0,0,1,.16,1.17,3.51,3.51,0,0,1-.47,1.42c-2.89,6.1-1.17,13.59-3.94,19.74a30.38,30.38,0,0,0,.27-14l-1.57-9.43a5,5,0,0,0,2.14,2,23.32,23.32,0,0,0-1.13-10.86l1.49.78a26.35,26.35,0,0,0-.83-9.88l1.45,1.42a13.49,13.49,0,0,0-1.44-6.95l1,.4a35.78,35.78,0,0,0-.47-8.46l1.06.13c.09-2-1.66-3.77-1.42-5.76a8.78,8.78,0,0,1,.54-1.79c1.38-4-.16-8.42-1.68-12.4l-.54,3a38,38,0,0,1,.3-7l-.87,4.68a81.47,81.47,0,0,1-.84-8.54l-.86,4.54c.49-3.06-.67-6.14-2.17-8.85s-3.36-5.24-4.46-8.13c1.75-1.14,4-.83,6.12-.68a32.32,32.32,0,0,0,6.88-.22c1.79-.24,4.43-1.46,6.2-.88C771,444.07,767.38,448.86,769.09,451.16Z"/><path d="M511,524.58l-.42-2.17a25.8,25.8,0,0,0-.74,6.72l-1.16-3.46L507,532.11a1.38,1.38,0,0,1-.34-1.51l-1.77,12.82a51,51,0,0,0-.67,8l-1.11-1.94A73.72,73.72,0,0,0,501.84,562c-1.45-3.44-3.13-7.14-6.43-8.9l2.25-.09a12.26,12.26,0,0,0-4-6.1,3.52,3.52,0,0,1,1.46.32,13.39,13.39,0,0,0-4.3-5.88.61.61,0,0,1,1,.07,15.63,15.63,0,0,0-3.78-5.7c-2.71-2.61-6.24-4.14-9.7-5.63a12.1,12.1,0,0,1,5.56-6,44.07,44.07,0,0,1,7.74-3.11c6-2.06,11.58-5.21,17.52-7.43C517,510.57,510.48,521.74,511,524.58Z"/><path d="M551.46,569s24.27-29.23,45.77-20.37C586.66,544.4,568.05,543.78,551.46,569Z"/><path d="M712.47,551.77s21.45,4.61,25.75,11C729,553.61,726.5,552.85,712.47,551.77Z"/><path d="M515.37,634.89s7.37,42.51,30.1,67.09,30.1,26.72,30.1,26.72-20-44-11.36-66.4C561,699.38,577.72,721.48,581,724.94s6.18,1.82,3.69-5.15c-.07-.18,22,36.4,34.09,37.63,6.3.46,9.17-.46,6.81-3.79,6.5,5.07,14.92,9.63,27.55,8.4s28.77-7.83,29.84-9.68c-17.91,9.88-31.47,15.61-52.21,9.88s-16.9-5-31.57-14.33-50.15-33-60.59-50.22S516.75,656.74,515.37,634.89Z"/><path d="M505.23,647.25s31.82,66.09,48.16,81.45C532,706.28,515.06,677.61,505.23,647.25Z"/><path class="cls-14" d="M716.61,564.45a.2.2,0,0,1,0,.08l-.34.56a.05.05,0,0,1,0,0c-1.41,2.26-4,5-6.3,4.56-3.11-.58-10.67-.89-11.67-8.49.24-.17,3.83-2.61,6.14-2.16-.19,2.53.88,4.45,2.46,4.45a4.54,4.54,0,0,0,4.25-2.78C713.7,560.18,716.61,564.45,716.61,564.45Z"/><circle class="cls-2" cx="703.97" cy="559.6" r="1.54"/><path class="cls-14" d="M599.38,561.82c-4.34,6.53-8.62,5.69-12.29,5.62-3.51-.07-5.92-4.06-6.15-8l5.23-.74s.23,2.38,3.69,2.46,3.72-1.89,3.72-1.89Z"/><circle class="cls-2" cx="588.11" cy="557.68" r="1.51"/><path d="M639.85,714.65s13.21-9.06,22.73-.62C656.9,712.54,652.06,711,639.85,714.65Z"/><path d="M607.37,683.85s20.58,5.84,32.48,3.84,6.83,6.52,23.88.42c7.07-1.8,14.29,3.16,25.5-1-10.2,5.51-59.06,5.35-66.77,4.43s-17.84-6-19.85-9.21S607.37,683.85,607.37,683.85Z"/><path d="M401.71,841.43s25.81,5.73,39,37.88C425.37,860.37,401.71,841.43,401.71,841.43Z"/><path d="M240.45,772.93s-2.15,12.44,8.29,16.51,38.4,17,51,19.13,16.28,7.67,25.19,8,23.65,3.07,30.72,6.76,15.05,9.83,22.12,11.37,13.51,4,15.66,6.75,5,8.3,8.29,11S418.4,866.11,422,871.64s13.31,20.68,13.62,23-21.92-34.41-33.9-41.16-25.49-16.08-28.56-17.41-59.9-25.24-86.93-23.09-41.93-4.76-54.83-1.54c-2.92.46-6.15-6.45-6.15-6.45s-4.45,5.23-1.22,7.84,11.21,6.45,15.51,4.3,3.07.46,12.9,4.3,16.74.3,22-.92,6.15-.31,15.67-.16,28.26,1.69,34.4,3.23a360.32,360.32,0,0,1,35.17,12.28c8,3.54,25.34,10.91,30.26,14.13s16,12.14,16.74,12.75-13.36-7.37-18-9.06S340.28,831.45,332,830.84s-42.7-9.83-64.51,2S236.76,848,239.84,853s6.75,9.52,15.51,4.46,17.2-6.92,21-6.92,9.83-2.76,14.28-2.91,12.75-.77,8.6,2S281,860.48,277.92,864.16s-7.83,5.23-2.45,8.14,12.59,6.15,18.12,2.15,8.6-6.75,8.6-8.14-3.07,6.61,0,7.68,10.29-1.69,13.06-2.91,5.53-2.77,7.83-2.46,3.53,1.84-3.38,4.3-32.1,12.13-37.47,19.35-5.69,10.44-4.46,10.75,6.45-8.29,7.83-8.29-2.15,6.77-.3,8.3,5.83,1.07,3.07,5.06-8,7.52-9.83,13.36S272.4,935,275.77,938s6.92,7.37,8.3,0a43.4,43.4,0,0,1,5.83-14.59c.62-.77-.92,4-1.84,8.6s-8.6,18.74-6,20,8.14-4.3,8.91-2.61-3.23,7.22-6.91,9.53-6,6.75-7.37,10.75-3.38,15.51-.16,19.81,18.28,14,22.12,19.2,11.21,11,13.67,6.5,5.94-10.24,4.09-13.31a31,31,0,0,1-2.86-7s8-11.06,11.67-4.1,9.83,10,8.6,1.84-7.17-10.24-6.35-14.95,2.25-9.82,7.37-6.55,5.74,7.58,3.28,13.72-5.73,13.52-3.07,13.52,9.42-1.23,7,2.46-8.39-.41-5.73,4.5,9.42,8.56,5.53,11.45-11.68,2.68-8.81,6.57,8.4,9.22,11.67,4.92,7.38-8.2,8-3.9,1.64,9.83,6.14,15.16,4.71,3.89,10.24,5.94,7.58,6.35,7.58,12.28-2.25,18.43,3.07,24.78,2.46,10.65,9.42,13.52,16.18-9,18.64-10.45,5.12,12.91,5.73,20.48-4.3,27.24.2,33.38,11.06,10.86,6.15,11.06-12.08-1.64-15.16-6.76-3.89-13.51-7.37-10a11.33,11.33,0,0,0-1.23,13.92c2.87,4.71,6.56,5.94,7.78,12.29s.41,12.08,2.05,16.18,18.23,13.72,26.42,13.92,19.66-.82,30.72,2.46,68.19,3.07,79.25,0,41-29.08,50.37-34.81,46.49-32.15,55.7-37.07,15.16-11.47,16-7.57-60.41,40.54-67.38,47.71-31.12,19.86-29.48,24.78-12.5,8.65,1,9.34,40.34-6.68,52.42-11.59,20.48-15,56.32-20.48,60.82-7.58,73.72-2.87,33,8.4,39.32,5.12,8.19-3.69,6.14.61a28,28,0,0,1-6.14,8.6c-1.44,1.23,3.27,2,.2,8.2s-18.63,2.86-18.63,2.86a123.71,123.71,0,0,0-16-1.43c-7,0-35.42-3.69-48.94-3.07s-38.91-1.64-42,1-10.24,8.19-14.13,7.58-16-5.12-19-5.94-12.09,3.69-12.9,4.3-20.89,10.84-25,11.77-336.86,0-336.86,0,1.53-51.6,2.15-58.36.3-55.19-3.18-64.61-4.71-27.64-1.64-40.34,1-33.38-2-41.57-3.69-22.93-1.23-28.46-.62-11.47-4.71-16.79-7.17-14.34-2.66-17.62.61-24.37-2.87-30.92-14.13-41.36-16-43.21-9.83-38.29-5.53-52.63S236.56,773.34,240.45,772.93Z"/><path class="cls-5" d="M290.21,1096.9s79.05,24.57,85.19,35.22,7.37,32.76,12.7,41-16.39,6.55-21.3-2.87S305,1100.58,290.21,1096.9Z"/><path d="M414.72,1049.18s21.91-29.08,26.42-33,11.26-9.42,14.33-10,27.65-4.1,30.31-4.1-5.53-1.22-14.95-1a50.38,50.38,0,0,0-38.3,18C419.22,1034.44,414.72,1049.18,414.72,1049.18Z"/><path d="M429.05,1137.63S452.4,1075,457.72,1065s5.53-11.26,5.53-11.26-14.95,14.13-18,22.52S428.23,1127.77,429.05,1137.63Z"/><path d="M466.73,1062.29S481.27,1043,483.52,1034s5.33-18.23,6.56-19.66,1.64-3.69-1.23-2.25-9.71,5.73-10,9.62S466.73,1062.29,466.73,1062.29Z"/><path d="M524.69,1023.79s-3.28,4.51-1.85,5.73,6.76.21,7.17-1.43S525.39,1022.72,524.69,1023.79Z"/><path d="M554,1030.07a16.13,16.13,0,0,1-1.43,6.9c-1.64,3.61,4.91,4.84,7.16,3.41s.41-4.61,1.64-4.87S559.29,1029,554,1030.07Z"/><path d="M459,1015.6s9.63-3.69,13.93-2.66,5.32,1.43,3.68,2.66-4.09,1.43-5.12,3.07-4.3-.41-7-1.23S459,1015.6,459,1015.6Z"/><path d="M456.85,1028.81s3.59-5.22,6.4-6,4.88-1.38,4.88-1.38-1.29,4.19-2.83,5.39S459.31,1030.65,456.85,1028.81Z"/><path d="M462.84,840.51s-9.61-67.15-8.47-67.58l5.6-2.1Z"/><path d="M465.3,851.57a21.54,21.54,0,0,0,15.56,5.53c4.51,1.39,16.08,4.71,17.77,4.91s-10.19,18.43-9.58,20.89,4.1,5.53,4.1,5.53-1.23-2.46.2-4.3,8.4-16.18,9.83-18,.82-5.74.82-5.74-9.92-3.68-12.43-3.27S465.3,851.57,465.3,851.57Z"/><path d="M516.09,931.23s27.84,33.38,40.85,43,26.52,25.19,29.38,27.65,17.62,15.8,18.23,21.72,9.63,9,9.63,9l-6.56-9.83s-22.11-27.09-26-30.34-31.75-29-31.75-29Z"/><path d="M818.85,906.55s-7.37-4.91,0-11.67,16.9-22.12,18.13-29.18c0,0,.3,14.44-4.92,23.34S821,902.25,822.54,904.4s8.29,8.3,5.84,15.05-9.53,8-11.06,15.06-3.69,20.58,10.75,19.35C821,959.69,813.32,969.52,813,976s-6.45,18.43-3.38,23.66,15.05,13.2,20.27,11.36a20.48,20.48,0,0,1,18.43,3.38c5.22,4.3,1.54,7.68,16.59,8.91s22.42,5.22,24.27,11.36-4.3,13.52-11.68,16.28-18.43,2.46-26.11,2.15-37.16-5.52-44.54-10.13-12.22-7.68-9.64-17.51.43-23.61,4.12-33,9.52-19.22,9.21-27.21-1.54-7.06-.61-12.59,4.3-11.67,3.37-15.36-1.22-11.36,1.23-16.59S818.85,906.55,818.85,906.55Z"/><path d="M856.18,869.54s2.91,10.75,2.15,14,3.07,7.37,4.45,4.91S864,871.08,856.18,869.54Z"/><path d="M770.32,1071.5s11.37.93,13.82-1.84,2.46-16.81,10.45-16.39,11.36,5.85,24.26,6.36,38.71,2.66,44.85,4.2,31.33,22.11,33.79,30.1,8,9.83,12.59,13.51,10.45,13.52,17.51,13.83,18.13,3.38,22.73-2.77,15.67-20.27,16.59-14.74-21.19,24-17.2,28.56,10.75,7.68,15.36,8,6.76,3.69,8,7.07,11.06,6.75,13.52,10.13,1.84,11.06,7.68,10.45,12.29-5.23,16-7.07,4.61,4.68,7.07,7.1,10.75,2.12,13.21,1.5,12.28-.36,16,.44,13.51.18,11.36,2.63-15.66,1.54-15.66,1.54L989,1172.26l-2.26.2s-1.43-9.42-12.59-14.84c-1.84-2.67-3.17-3.28-3.07-5.23s-12.6-8.8-14.34-9.11-52-21-59.69-23.34-17.71-6.56-18.33-6.66-11.57-15.26-21-22-18.63-15-39.93-15.26-50-2.46-50.79-3.48S770.32,1071.5,770.32,1071.5Z"/><path d="M438.58,844.2S445,889,444.41,892.42s6,18.43,6.09,27.65c12,20.58,17.63,35.32,17.63,35.32s-17-71.07-16-76.08-2.46-8.08-3.69-7.16-.3-7.06-.3-8-.86-3.59-2-3.79S438.58,844.2,438.58,844.2Z"/></g></svg>