<svg xmlns="http://www.w3.org/2000/svg" xmlns:xlink="http://www.w3.org/1999/xlink" viewBox="0 0 158.31 142.48"><defs><style>.cls-1{fill:#f7db4f;}.cls-2{fill:#2f9599;}.cls-3{fill:url(#Degradado_sin_nombre_30);}.cls-4{fill:url(#Degradado_sin_nombre_27);}.cls-5{fill:url(#Degradado_sin_nombre_22);}.cls-6{fill:url(#Degradado_sin_nombre_22-2);}.cls-7{fill:url(#Degradado_sin_nombre_26);}</style><linearGradient id="Degradado_sin_nombre_30" x1="53.29" y1="21.96" x2="49" y2="73.19" gradientUnits="userSpaceOnUse"><stop offset="0" stop-color="#f7db4f"/><stop offset="0.1" stop-color="#f3d74e"/><stop offset="0.2" stop-color="#e6cc49"/><stop offset="0.31" stop-color="#d0b843"/><stop offset="0.43" stop-color="#b29d39"/><stop offset="0.54" stop-color="#8b7b2c"/><stop offset="0.66" stop-color="#5b501d"/><stop offset="0.77" stop-color="#231f0b"/><stop offset="0.84"/></linearGradient><linearGradient id="Degradado_sin_nombre_27" x1="76.59" y1="48.48" x2="94.63" y2="13.16" gradientUnits="userSpaceOnUse"><stop offset="0" stop-color="#f7db4f"/><stop offset="0.09" stop-color="#f2d74d"/><stop offset="0.2" stop-color="#e4cb49"/><stop offset="0.31" stop-color="#ceb642"/><stop offset="0.43" stop-color="#ae9a38"/><stop offset="0.55" stop-color="#84752a"/><stop offset="0.67" stop-color="#52491a"/><stop offset="0.79" stop-color="#171507"/><stop offset="0.84"/></linearGradient><linearGradient id="Degradado_sin_nombre_22" x1="45.16" y1="32.74" x2="106.72" y2="32.74" gradientUnits="userSpaceOnUse"><stop offset="0" stop-color="#2f9599"/><stop offset="0.18" stop-color="#277d80"/><stop offset="0.57" stop-color="#144042"/><stop offset="0.95"/></linearGradient><linearGradient id="Degradado_sin_nombre_22-2" x1="95.54" y1="99.62" x2="110.27" y2="123.12" xlink:href="#Degradado_sin_nombre_22"/><linearGradient id="Degradado_sin_nombre_26" x1="79.65" y1="110.54" x2="67.53" y2="129.1" gradientUnits="userSpaceOnUse"><stop offset="0" stop-color="#f7db4f"/><stop offset="0.11" stop-color="#f2d74d"/><stop offset="0.23" stop-color="#e4ca49"/><stop offset="0.37" stop-color="#ccb541"/><stop offset="0.51" stop-color="#aa9737"/><stop offset="0.66" stop-color="#807129"/><stop offset="0.81" stop-color="#4b4318"/><stop offset="0.97" stop-color="#0e0d05"/><stop offset="1"/></linearGradient></defs><title>logoTecnicasYGofrado</title><g id="Capa_1" data-name="Capa 1"><path class="cls-1" d="M85.58,33.43v66.73H72.73V32.89h6.43A38.8,38.8,0,0,1,85.58,33.43Z"/><path class="cls-2" d="M130.56,71.44a51.23,51.23,0,0,1-15.06,36.35,48.88,48.88,0,0,1-4.76,4.21,50.84,50.84,0,0,1-9.31,5.78c-1.16.56-2.34,1.07-3.54,1.54a50.9,50.9,0,0,1-12.31,3.13v0a76.92,76.92,0,0,0,27.74-33.08,36.94,36.94,0,0,0,2.19-5H104.86a12.85,12.85,0,0,1,12.85-12.85Z"/><path class="cls-3" d="M79.15,20c-2.17,0-3.19,1.76-5.3,2-10.5,1.3-12.85,4.15-20.4,10.82H34.18a6.43,6.43,0,0,1-6.43-6.43V20Z"/><path class="cls-2" d="M128.93,58.59h-9.21a6.39,6.39,0,0,1-5.74-3.7c-.57-1.2-1.21-2.37-1.89-3.5a38.28,38.28,0,0,0-5.37-6.89A77.21,77.21,0,0,0,69.11,21c1.12-.22,2.47-.44,3.62-.59a53.12,53.12,0,0,1,12.85,0,51.44,51.44,0,0,1,43.35,38.16Z"/><path class="cls-4" d="M85.58,32.43V55H72.73V31.89h6.43A38.8,38.8,0,0,1,85.58,32.43Z"/><path class="cls-5" d="M106.72,44.5l-.31-.32A38.36,38.36,0,0,0,85.58,33.42a38.93,38.93,0,0,0-6.43-.53h-34A51.18,51.18,0,0,1,69.32,21,76.62,76.62,0,0,1,106.72,44.5Z"/><path class="cls-6" d="M113.32,89.32A76.92,76.92,0,0,1,85.58,122.4l-.45-12.87A40.94,40.94,0,0,0,97,105.65l.94-.51a38.11,38.11,0,0,0,8.53-6.44,37.42,37.42,0,0,0,4.32-5.15A36.46,36.46,0,0,0,113.32,89.32Z"/><path class="cls-7" d="M85.58,100.16V122.4a12.85,12.85,0,0,1-12.85-12.85v-9.39Z"/></g></svg>