<svg xmlns="http://www.w3.org/2000/svg" viewBox="0 0 500 500"><defs><style>.cls-1{fill:#92bee2;}.cls-2{fill:#7086b6;}.cls-3,.cls-5{opacity:0.09;}.cls-3{isolation:isolate;}.cls-4{fill:#d7d354;}.cls-6{fill:#fff;}.cls-7{fill:#e49595;}.cls-8{fill:#d0b16e;}.cls-9{fill:#704926;}.cls-10{fill:#df425b;}.cls-11{fill:#727272;}</style></defs><title>telefono-imagen</title><g id="Capa_1" data-name="Capa 1"><rect class="cls-1" width="500" height="500"/><path class="cls-2" d="M264.7,120.72V364.27a14.25,14.25,0,0,1-14.25,14.26H144.2a14.27,14.27,0,0,1-14.26-14.26V120.72a14.27,14.27,0,0,1,14.26-14.26h28v4.15a7.08,7.08,0,0,0,7.08,7.08h36a7.08,7.08,0,0,0,7.08-7.08h0v-4.15h28A14.26,14.26,0,0,1,264.7,120.72Z"/><path class="cls-3" d="M258.77,314.19s-39.5-19.55-47.84-18.38-54.56,20.53-54.56,20.53l9.39-30.16,27-16.95,18.56,3.65,26.57,21.61L252.61,303Z"/><path class="cls-4" d="M370.18,221.88a82.26,82.26,0,0,1-82.25,82.26h0c-1.78,0-3.54-.06-5.29-.18-2.17-.13-4.32-.35-6.43-.66h0a81.45,81.45,0,0,1-9.66-2,82.28,82.28,0,0,1,0-158.9,79.14,79.14,0,0,1,9.66-2h0c2.11-.31,4.26-.53,6.42-.66,1.75-.12,3.52-.18,5.3-.18a82.19,82.19,0,0,1,82.26,82.11Z"/><g class="cls-5"><rect x="151.15" y="206.47" width="66.11" height="48.61" rx="3.45" transform="translate(-110.97 223.23) rotate(-49.94)"/></g><path class="cls-3" d="M226.05,228,194,277.8a3.46,3.46,0,0,1-4.76,1l-35.1-22.57a3.42,3.42,0,0,1-1-4.74h0l1.07-1.66,31-48.16a3.46,3.46,0,0,1,4.76-1l34.8,22.39.3.18A3.47,3.47,0,0,1,226.05,228Z"/><path class="cls-6" d="M228.22,227.34l-32.05,49.81a3.46,3.46,0,0,1-4.76,1l-35.1-22.57a3.47,3.47,0,0,1-1-4.76l1.07-1.65,31-48.16a3.44,3.44,0,0,1,4.74-1h0l34.8,22.38.3.19A3.46,3.46,0,0,1,228.22,227.34Z"/><path class="cls-3" d="M226.56,226.38l-38.11,45.33a3.46,3.46,0,0,1-4.85.41L156.37,249.2l31-48.16a3.44,3.44,0,0,1,4.74-1h0l34.79,22.38A3.42,3.42,0,0,1,226.56,226.38Z"/><rect class="cls-6" x="155.08" y="205.85" width="66.11" height="48.61" rx="3.45" transform="translate(-109.1 226.02) rotate(-49.94)"/><rect class="cls-3" x="303.96" y="342.42" width="66.11" height="48.61" rx="3.45" transform="translate(-145.3 242.47) rotate(-32.97)"/><rect class="cls-6" x="303.76" y="337.13" width="66.11" height="48.61" rx="3.45" transform="translate(-142.45 241.5) rotate(-32.97)"/><path class="cls-7" d="M301,347.94c.75.85,0,2.12-1.3,1.89s-5.83-2.81-6.66-3.12a84.93,84.93,0,0,1-8.23-6.22,17.05,17.05,0,0,1-3.08-3.27,13.67,13.67,0,0,1-1.73-3.46,16,16,0,0,1-.46-1.68h0v0c0-.16-.06-.31-.09-.49a6,6,0,0,0-.87-2.06c-1.74-2.79-5.59-5.48-8.2-7.11l-.61-.37c-.76-.46-1.36-.8-1.71-1s-1.51-1-3.37-2.4c-5.06-3.71-14.89-11.08-23.83-17.8A85.65,85.65,0,0,0,216.39,288h0a85.45,85.45,0,0,0-12.61-3.14h0a202.26,202.26,0,0,1-27.73,19.59c-6.69,3.92-12.8,7.66-17.64,10.69h0c-.41.24-.81.49-1.19.74h0l-2.78,1.75c-2.32,1.49-4.14,2.65-5.36,3.47l-1.7,1.1-1-1.85-14.83-27-1.59-2.89V282c10.39-6.88,42.85-27.28,69.72-31.32,14.45-2.74,51.75,35.74,51.75,35.74a168,168,0,0,0,13.31,14.16c1.63,1.53,3.34,3.06,5.08,4.51,5.13,4.27,10.56,7.86,15.21,8.87,7,1.51,14.34,3.63,19.9,5.33l-10.52,5.9-.32,8.28a8.06,8.06,0,0,0-1.36-.46c-1.86-.39-1.89,2.43-1.15,4.76a11.38,11.38,0,0,0,.43,1.1l0,.05a4.92,4.92,0,0,0,.44.78,3.75,3.75,0,0,0,.35.44l.18.18h0C294.87,342.26,300.32,347.13,301,347.94Z"/><path class="cls-7" d="M129.94,282v8.41l-3.34-6.13S127.8,283.42,129.94,282Z"/><path class="cls-3" d="M158.34,315.09l-1.19.75h0l-2.78,1.75-2.05-1.82-12.9-15.57-6.6-12.94v-5.05s14,9,20.47,22.25c3.65,7.52,4.78,9.94,5.08,10.62h0C158.59,315.59,158.34,315.09,158.34,315.09Z"/><path class="cls-3" d="M216.35,287.94a85.48,85.48,0,0,0-12.61-3.15c.2-.19,4.32-4.1,4.88-6.67C213.74,286.26,216.19,287.85,216.35,287.94Z"/><path class="cls-3" d="M278.59,329.48c-1.74-2.79-5.59-5.49-8.2-7.11,1.58.22,3.71.49,6.3.87A41.38,41.38,0,0,0,278.59,329.48Z"/><path class="cls-3" d="M292,338.86l-4.07-7.13,4.79,1.27C290.53,332.55,290.86,336.47,292,338.86Z"/><path class="cls-8" d="M158,362.59,146.32,378l-14.62-1.59L124.94,347,140.63,339l7.13-3.66S155.3,353,159.21,356a4,4,0,0,1,.77.71C162.35,359.44,158,362.59,158,362.59Z"/><path class="cls-3" d="M160,356.66h0c-4.77-1-9.39-12.82-11.37-14.51s-9.89.9-9.89.9l1.92-4.09,7.13-3.66S155.31,353,159.22,356A3.93,3.93,0,0,1,160,356.66Z"/><path class="cls-4" d="M153.09,319.83c-3,5.86-5.2,6.12-5.2,6.12a21.62,21.62,0,0,1,.26,7.65c-.59,3.59-2.47,7.42-7.49,8.9l-10.72,3.16-5,1.45,0-62.88a7.34,7.34,0,0,1,2.14-1.18c.4-.11,1.44.41,2.89,1.43C137.33,289.6,155.38,307.52,153.09,319.83Z"/><path class="cls-7" d="M215.45,381.05h0l-15.13.49-15.52-6.06-14.75-10.06,4.3-4.88,8.41-1.76,1.17,1s13,4.48,17.48,8.29a92.47,92.47,0,0,0,8.4,6.48h0a12,12,0,0,0,1.05.64C212.34,376,215.45,381.05,215.45,381.05Z"/><path class="cls-9" d="M203.22,381.27l-1.67.15c-6.58.54-30.66,2.51-37.26,2.85-4.22.21-13.67-1.36-21.3-2.81-6.25-1.19-11.29-2.3-11.29-2.3l2.13-3.09a2,2,0,0,0,.43,0,2.76,2.76,0,0,0,2.14-1c2.41-3.05,9-10.94,15.86-15.41,3.64-2.36,7.37-3.76,10.6-3,10.94,2.61,13.41.12,14.45,0a16.25,16.25,0,0,1,3.87,1.09,20.41,20.41,0,0,0,4.95.93,8.58,8.58,0,0,1,6.18,3.91,3,3,0,0,1,.27.57c.54,1.48-1.06,1.43-1.46,3h0a4.56,4.56,0,0,0,.15,2.26v.06a8.08,8.08,0,0,0,.79,1.87h0a8.54,8.54,0,0,0,3.15,3.08c.84.5,1.62.94,2.31,1.41a17.59,17.59,0,0,1,2.06,1.48C203.74,380,203.22,381.27,203.22,381.27Z"/><path class="cls-7" d="M216.76,382.57l-1.31-1.52h0s-3.12-5.09-4.59-5.86c-.28-.15-.63-.36-1.05-.64.35.1,9.89,2.78,11.18,4.05S216.76,382.57,216.76,382.57Z"/><path class="cls-3" d="M216.76,382.57l-1.31-1.52h0s-3.12-5.09-4.59-5.86c-.28-.15-.63-.36-1.05-.64.35.1,9.89,2.78,11.18,4.05S216.76,382.57,216.76,382.57Z"/><ellipse cx="206.66" cy="376.81" rx="1.03" ry="2.36" transform="translate(-110.86 87.2) rotate(-18.89)"/><path class="cls-3" d="M147.89,325.94s-11.43.22-14.55-1.53c5.85,4.2,14.91,3.74,14.91,3.74Z"/><path class="cls-3" d="M148.14,333.59c-.58,3.59-2.47,7.42-7.48,8.9-10.55,3.12-16,4.7-16,4.7l-1.33-3.87s18.63,1,24.82-9.71Z"/><path class="cls-8" d="M155.4,319.13c0,.5-1.48,2.15-2.31.69,2.74-14.72-23.65-37.49-26-36.79,0,0-.65-1.4,1.89-2.47s14.54,10.59,20.41,19.64A38.87,38.87,0,0,1,155.4,319.13Z"/><path class="cls-3" d="M192.56,363.16c.54,1.48-1.06,1.43-1.46,3h0a4.56,4.56,0,0,0,.15,2.26v.06a8.08,8.08,0,0,0,.79,1.87c-1.32-1.34-2.6-3-2.44-4.34C189.82,364.33,191.38,363.54,192.56,363.16Z"/><path class="cls-3" d="M203.22,381.27l-1.67.15a12.27,12.27,0,0,0-4-6.61,17.59,17.59,0,0,1,2.06,1.48C203.74,380,203.22,381.27,203.22,381.27Z"/><path class="cls-3" d="M152.26,359.65c-3.56,4.68-9,12.55-9.16,17.68-.06,1.56-.09,2.93-.11,4.13-6.25-1.19-11.29-2.3-11.29-2.3l2.13-3.09a2,2,0,0,0,.43,0,2.76,2.76,0,0,0,2.14-1C138.81,372,145.39,364.12,152.26,359.65Z"/><path class="cls-3" d="M169.6,372.13c1.23,2.31,3.41,5.28,6.8,6.43,0,2.09-.29,2.58-1.66,2.19-1-.29-4.13-4.82-5.63-8.41a.27.27,0,0,1,.21-.32A.28.28,0,0,1,169.6,372.13Z"/><path class="cls-3" d="M291.27,337.63l-7.42-.86a1.4,1.4,0,0,1-1.22-1.25h0a.66.66,0,0,1,.59-.73h.15l7.64,1Z"/><path class="cls-3" d="M160.57,366.31c-.86,2.59-1.67,6.23-.59,8.67-2.48,1.2-3.38.5-3.5-.45-.1-.73,1.39-5.08,3.37-8.54a.39.39,0,0,1,.53-.18A.4.4,0,0,1,160.57,366.31Z"/><path class="cls-10" d="M286,333.07l-.58,3-.75-.17a1.52,1.52,0,0,1,.68-3h0Z"/><polygon class="cls-4" points="330.96 343.36 330.48 346.5 285.39 336.05 285.97 333.06 330.96 343.36"/><polygon class="cls-6" points="285.55 335.24 330.62 345.59 330.67 345.28 285.58 335.04 285.55 335.24"/><polygon class="cls-6" points="285.88 333.51 330.9 343.73 330.94 343.47 285.91 333.36 285.88 333.51"/><polygon class="cls-6" points="285.97 333.06 286.87 333.27 286.35 336.27 285.39 336.05 285.97 333.06"/><path d="M336.77,346.46h-2a3.92,3.92,0,0,1,.17-1.07h0l1.78.91a.08.08,0,0,1,.06.1.08.08,0,0,1-.09.06Z"/><path class="cls-8" d="M334.83,346.17a1.5,1.5,0,0,0,0,.3l-4.33,0,.5-3.15,4,2.06A4,4,0,0,0,334.83,346.17Z"/><path class="cls-3" d="M334.81,346.47l-4.33,0,.19-1.22a8,8,0,0,0,4.16.89A1.51,1.51,0,0,0,334.81,346.47Z"/><path class="cls-7" d="M319.24,332c-.85,1.11-2.74,1.44-3.46.91a34.33,34.33,0,0,1,2.92,7.94c-.07.46-.84,1.63-1.82.92a9.09,9.09,0,0,1-1.88-2.22c1,2.74,2.4,4.72,1.91,7.1a1.72,1.72,0,0,1-3.22-.26,5.18,5.18,0,0,1-.17-.56c0,.77-.15,1.49-.77,1.55a1.08,1.08,0,0,1-.76-.19h0c-.95-.65-1.44-2.63-1.6-2.63s.88,1.74-.57,2.91c-.7.58-2-.87-2.28-1.59s-4.69-7.56-5.57-7.91-5-3.3-7.91-4.52l.3-8.27,10.53-5.9c5.19,1.58,8.86,2.81,9.33,2.87C315.2,322.3,320.08,330.88,319.24,332Z"/><path class="cls-3" d="M312,347.17c-1-.64-1.45-2.62-1.61-2.62,0,0-3-7.18-4-8.2s-8.3-5.33-9-5.74l9.14,4.91Z"/><path class="cls-3" d="M313.53,345.82s-1.2-6.72-4-11.4c-6.43-4.59-7.13-5-7.13-5l7.38,4.49S313.17,339.75,313.53,345.82Z"/><path class="cls-3" d="M315,339.54s-1.95-7.55-2.54-8.2-6.11-3.6-6.11-3.6l6.64,2.87Z"/><polygon class="cls-3" points="315.79 332.9 314.39 327.33 307.95 324.7 315 326.55 315.79 332.9"/><circle class="cls-3" cx="155.71" cy="215.57" r="13.77"/><path class="cls-6" d="M174.41,201.7a2.09,2.09,0,0,1-.79,1.67l-2.83,2.3L169,207.1a.81.81,0,0,1-1.15-.11h0l-.91-1.12-.75-.93a.75.75,0,0,1-.16-.29v-.12a.83.83,0,0,1,.29-.75h0l1.26-1,3.32-2.7a2.14,2.14,0,0,1,3,.31,2.09,2.09,0,0,1,.48,1.36Z"/><path class="cls-3" d="M170.79,205.67,169,207.1a.81.81,0,0,1-1.15-.11h0l-.91-1.12-.91-1.24,0-.06,0-.06.31-.76,1.26-1A4.57,4.57,0,0,1,170.79,205.67Z"/><circle class="cls-6" cx="157.93" cy="213.87" r="13.77"/><circle class="cls-8" cx="157.93" cy="213.87" r="11.04"/><path class="cls-6" d="M161.06,206.83c-.69-.1-1.4.12-2.1.09-.49,0-1-.2-1.53-.25a1.73,1.73,0,0,0-1.46.4,6.61,6.61,0,0,0-.44.6c-1,1.18-3.26.46-4.06,1.75a6.47,6.47,0,0,0-.44,1.82c-.35,1.24-1.7,2.1-1.8,3.38a6.25,6.25,0,0,0,.61,2.25c.16.53.22,1.09.39,1.63a2.3,2.3,0,0,0,.91,1.35,1.19,1.19,0,0,0,1.52-.16c.14-.17.22-.39.37-.54a1,1,0,0,1,1-.18,2.35,2.35,0,0,1,.86.57,9.63,9.63,0,0,1,1.36,1.56,2.52,2.52,0,0,0,.6.66.68.68,0,0,0,.82,0,1,1,0,0,0,.2-.5l.37-1.74a1.77,1.77,0,0,1,.41-1,1.47,1.47,0,0,1,.61-.31c1.67-.43,3.67.38,5-.69,1.11-.87,1.11-2.54.89-4C164.73,211,164.3,207.26,161.06,206.83Z"/><path class="cls-6" d="M159.77,220.28a.83.83,0,0,0,.5.29c.72,0,.71-1.14.14-1.37S159.27,219.75,159.77,220.28Z"/><path class="cls-6" d="M153.65,220.27a.41.41,0,0,0-.07.37.71.71,0,0,0,.17.36.35.35,0,0,0,.36.1.42.42,0,0,0,.14-.09c.13-.1.08-.49,0-.64a.42.42,0,0,0-.6-.1Z"/><polygon class="cls-3" points="336.76 346.46 308.77 350.68 315.79 346.13 336.76 346.46"/><path d="M269.78,305.09V110.47a14.26,14.26,0,0,0-14.25-14.26H139.12a14.26,14.26,0,0,0-14.25,14.26v264a14.25,14.25,0,0,0,14.25,14.26H255.53a14.25,14.25,0,0,0,14.25-14.26V322c-.76-.45-1.36-.8-1.71-1s-1.51-1-3.37-2.41v45.68a14.25,14.25,0,0,1-14.25,14.26H144.2a14.26,14.26,0,0,1-14.26-14.26V120.72a14.26,14.26,0,0,1,14.26-14.25h28v4.14a7.08,7.08,0,0,0,7.08,7.08h36a7.08,7.08,0,0,0,7.08-7.08h0v-4.14h28a14.25,14.25,0,0,1,14.25,14.25V300.58C266.33,302.11,268,303.64,269.78,305.09Z"/><path class="cls-11" d="M346.65,335.61l2.64.31a1.49,1.49,0,0,0,.22,1.6c.33.47.79.84,1.09,1.33a5.45,5.45,0,0,1,.46,1.18,12.64,12.64,0,0,0,5.21,6.67,3.7,3.7,0,0,1,1.48,1.29,4,4,0,0,1,.26.88,9.14,9.14,0,0,0,1,2.62,4.57,4.57,0,0,0,.85,1.15c.45.43,1.08.85,1,1.46"/><path class="cls-11" d="M363.26,357a2.19,2.19,0,0,0,.78.49.9.9,0,0,1,.56.69,3.43,3.43,0,0,0-.06.55.87.87,0,0,0,.22.35q2,2.26,3.95,4.6"/><path class="cls-11" d="M347.15,343.7l6.39,6.78a3.29,3.29,0,0,1,.78,1.1c.13.34.14.71.25,1.06a4.29,4.29,0,0,0,.49.92,93.24,93.24,0,0,0,6.4,8.15,2.44,2.44,0,0,1,.56.89,6.69,6.69,0,0,0,.11.67,1.73,1.73,0,0,0,.35.54l2.38,2.83"/><path class="cls-11" d="M345.26,341.12a3.62,3.62,0,0,0-.85-1.81A.72.72,0,0,0,344,339c-.2,0-.44.12-.61,0s-.11-.44-.06-.68a1.78,1.78,0,0,0-.17-1,4.86,4.86,0,0,0-1.25-1.73c-.37-.33-.79-.6-1.15-.94a2.06,2.06,0,0,1-.69-1.27"/><path class="cls-11" d="M336.67,339.3a3.17,3.17,0,0,0,1.54,2.25,3.13,3.13,0,0,1,1.26.85c.1.18.16.38.25.56a3.42,3.42,0,0,0,1.27,1.15,1,1,0,0,1,.4.4,3.15,3.15,0,0,1,.11.44c.15.5.71.75,1,1.19.1.18.16.37.26.55.43.73,1.49.81,2.1,1.39-.24.13-.21.49-.05.71s.42.35.6.55a1.92,1.92,0,0,1,.23.35,9.42,9.42,0,0,1,.89,2.33"/><path class="cls-11" d="M348.74,355.26a1.83,1.83,0,0,1,1.2.95c.06.16.06.34.11.49a2.41,2.41,0,0,0,.3.6l1,1.59.32.49"/><path class="cls-11" d="M353.54,362.35A5.55,5.55,0,0,1,355,363.8a7.3,7.3,0,0,0,.49.84,4.55,4.55,0,0,0,1.16,1,12.63,12.63,0,0,1,1.75,1.52l-.2.35a2.56,2.56,0,0,1,1.18,1.31,8.86,8.86,0,0,0,.8,1.6"/><path class="cls-11" d="M336.81,346.34v-.46c-.26,0-.59-.18-.54-.43l0-.14a.34.34,0,0,0-.09-.18,4.36,4.36,0,0,1-.61-1.07,1.67,1.67,0,0,1-1.48-1.44,1.77,1.77,0,0,0-.05-.32,1.19,1.19,0,0,0-.13-.25l-1-1.45"/><path class="cls-3" d="M282.63,139.79V304c-2.17-.13-4.32-.35-6.43-.66h0a79.53,79.53,0,0,1-9.66-2V142.43a79.14,79.14,0,0,1,9.66-2h0C278.31,140.15,280.46,139.93,282.63,139.79Z"/></g></svg>