<svg id="Capa_1" data-name="Capa 1" xmlns="http://www.w3.org/2000/svg" xmlns:xlink="http://www.w3.org/1999/xlink" viewBox="0 0 300 300"><defs><style>.cls-1{fill:#fff;}.cls-2{fill:#f79831;}.cls-3{fill:url(#Degradado_sin_nombre_10);}.cls-4{fill:url(#Degradado_sin_nombre_10-2);}.cls-5{fill:url(#Degradado_sin_nombre_6);}</style><linearGradient id="Degradado_sin_nombre_10" x1="197.44" y1="179.46" x2="179.5" y2="168.24" gradientUnits="userSpaceOnUse"><stop offset="0" stop-color="#f79831"/><stop offset="0.11" stop-color="#f29530"/><stop offset="0.23" stop-color="#e58d2d"/><stop offset="0.36" stop-color="#cf7f29"/><stop offset="0.49" stop-color="#b06c23"/><stop offset="0.62" stop-color="#88541b"/><stop offset="0.76" stop-color="#573611"/><stop offset="0.89" stop-color="#1f1306"/><stop offset="0.96"/></linearGradient><linearGradient id="Degradado_sin_nombre_10-2" x1="100.81" y1="180.64" x2="121.35" y2="166.59" xlink:href="#Degradado_sin_nombre_10"/><linearGradient id="Degradado_sin_nombre_6" x1="127.12" y1="181.25" x2="164.81" y2="168.55" gradientUnits="userSpaceOnUse"><stop offset="0" stop-color="#f79831"/><stop offset="0.11" stop-color="#f29530"/><stop offset="0.24" stop-color="#e58d2d"/><stop offset="0.37" stop-color="#cf7f29"/><stop offset="0.51" stop-color="#b06c23"/><stop offset="0.65" stop-color="#88541b"/><stop offset="0.79" stop-color="#573611"/><stop offset="0.93" stop-color="#1f1306"/><stop offset="1"/></linearGradient></defs><title>logoTusProveedores</title><rect class="cls-1" width="300" height="300"/><ellipse cx="215.4" cy="153.24" rx="6.16" ry="6.01"/><path class="cls-2" d="M222.81,169.09v1.16c0,10.35-9.14,18.89-20.84,19.9-.79.07-1.58.1-2.37.1a25.65,25.65,0,0,1-13.84-3.94,25.31,25.31,0,0,1-2.21-1.59c-.13-.11-.25-.2-.36-.31a19.06,19.06,0,0,1-6.69-12.31c-.06-.62-.09-1.23-.09-1.85l.09-11v0a9.26,9.26,0,0,1,18.33-.09v0l0,4.56.12,10.67a6,6,0,0,0,5.88,5.61h0a3.87,3.87,0,0,0,.76,0c3.28-.17,5.88-2.53,5.88-5.4v-5.48c0-3.64,3.41-6.59,7.62-6.59a8.22,8.22,0,0,1,5.39,1.93A6.14,6.14,0,0,1,222.81,169.09Z"/><ellipse cx="215.4" cy="153.24" rx="6.16" ry="6.01"/><path class="cls-3" d="M202,190.15c-.79.07-1.58.1-2.37.1a25.65,25.65,0,0,1-13.84-3.94,25.31,25.31,0,0,1-2.21-1.59,28.09,28.09,0,0,0,11.33-21l.12,10.67a6,6,0,0,0,5.88,5.61h0a3.87,3.87,0,0,0,.76,0Z"/><path class="cls-2" d="M194.83,159.14l0,4.56a28.09,28.09,0,0,1-11.33,21c-.13-.11-.25-.2-.36-.31a19.06,19.06,0,0,1-6.69-12.31c-.06-.62-.09-1.23-.09-1.85l.09-11v0a9.26,9.26,0,0,1,18.33-.09Z"/><path class="cls-2" d="M222.81,169.09v1.16c0,10.35-9.14,18.89-20.84,19.9l-.3-10.18c3.28-.17,5.88-2.53,5.88-5.4v-5.48c0-3.64,3.41-6.59,7.62-6.59a8.22,8.22,0,0,1,5.39,1.93A6.14,6.14,0,0,1,222.81,169.09Z"/><ellipse cx="84.6" cy="153.24" rx="6.16" ry="6.01"/><path class="cls-2" d="M123.59,170.25a16.38,16.38,0,0,1-.1,1.85,19,19,0,0,1-6.68,12.31c-.12.11-.25.21-.38.31a24.44,24.44,0,0,1-2.19,1.59,25.66,25.66,0,0,1-13.85,3.94c-.79,0-1.58,0-2.37-.1-11.7-1-20.83-9.55-20.83-19.9v-1.16a6.16,6.16,0,0,1,2.24-4.66,8.25,8.25,0,0,1,5.4-1.93c4.21,0,7.62,2.95,7.62,6.59v5.48c0,2.87,2.59,5.23,5.87,5.4a4,4,0,0,0,.77,0h0a6,6,0,0,0,5.89-5.61l0-11.49v-.08l0-2.92s0,0,0,0a9.27,9.27,0,0,1,9.23-8.64,9.26,9.26,0,0,1,9.17,8v0l.08,7.31,0,2.18Z"/><ellipse cx="84.6" cy="153.24" rx="6.16" ry="6.01"/><path class="cls-4" d="M116.43,184.72a24.44,24.44,0,0,1-2.19,1.59,25.66,25.66,0,0,1-13.85,3.94c-.79,0-1.58,0-2.37-.1l.3-10.18a4,4,0,0,0,.77,0h0a6,6,0,0,0,5.89-5.61l0-11.49A28.08,28.08,0,0,0,116.43,184.72Z"/><path class="cls-2" d="M98.32,180,98,190.15c-11.7-1-20.83-9.55-20.83-19.9v-1.16a6.16,6.16,0,0,1,2.24-4.66,8.25,8.25,0,0,1,5.4-1.93c4.21,0,7.62,2.95,7.62,6.59v5.48C92.45,177.44,95,179.8,98.32,180Z"/><path class="cls-2" d="M123.59,170.25a16.38,16.38,0,0,1-.1,1.85,19,19,0,0,1-6.68,12.31c-.12.11-.25.21-.38.31a28.08,28.08,0,0,1-11.38-21.84v-.08l0-2.92s0,0,0,0a9.27,9.27,0,0,1,9.23-8.64,9.26,9.26,0,0,1,9.17,8v0l.08,7.31,0,2.18Z"/><circle cx="149.92" cy="118.99" r="9.26"/><circle cx="185.94" cy="137.84" r="7.47"/><path class="cls-2" d="M161.34,146.52v15.6a28.13,28.13,0,0,1-28.15,28.14c-1,0-1.93,0-2.87-.14a28.19,28.19,0,0,1-25.27-27.24v-.08c0-.23,0-.46,0-.68v-1.65a5.68,5.68,0,0,1,0-.59s0,0,0,0a9.27,9.27,0,0,1,9.23-8.64,9.26,9.26,0,0,1,9.17,8v0a8,8,0,0,1,.08,1.2v7.73a5.12,5.12,0,0,0,0,.56,7.62,7.62,0,0,0,7.1,7,5.87,5.87,0,0,0,.94,0,0,0,0,0,1,0,0,7.8,7.8,0,0,0,7.12-7.89V146.52a11.29,11.29,0,1,1,22.57,0Z"/><path class="cls-5" d="M150,184.7a28,28,0,0,1-16.79,5.55,27.23,27.23,0,0,1-2.88-.14,26.52,26.52,0,0,1-4.47-.84l2.49-14a7.16,7.16,0,0,0,2.35.56,4.78,4.78,0,0,0,.93,0s0,0,0,0a7.83,7.83,0,0,0,7.12-7.9V164.7a28.13,28.13,0,0,0,8.1,17.33A29.31,29.31,0,0,0,150,184.7Z"/><path class="cls-2" d="M161.34,146.52v15.59a25,25,0,0,1-.15,2.88,28,28,0,0,1-8.1,17,27.25,27.25,0,0,1-3.1,2.67,29.31,29.31,0,0,1-3.12-2.67,28.13,28.13,0,0,1-8.1-17.33V146.52a11.26,11.26,0,0,1,10.14-11.22,8.39,8.39,0,0,1,1-.06,11.44,11.44,0,0,1,11.43,11.28Z"/><circle cx="114.03" cy="137.84" r="7.47"/><path class="cls-2" d="M194.93,160.48v1.63c0,.53,0,1.06-.05,1.59a28.13,28.13,0,0,1-25.22,26.41,27.44,27.44,0,0,1-2.87.14,28,28,0,0,1-16.8-5.54,30.62,30.62,0,0,1-3.12-2.68,28.13,28.13,0,0,1-8.1-17.33c-.08-.85-.12-1.71-.12-2.59V146.52a11.23,11.23,0,0,1,10.26-11.22,8.4,8.4,0,0,1,1-.07,11.28,11.28,0,0,1,11.28,11.29v21.39a7.86,7.86,0,0,0,7.15,7.9s0,0,0,0a6,6,0,0,0,1,0,7.59,7.59,0,0,0,7.12-7.59v-7.71a10.36,10.36,0,0,1,.08-1.25v0a9.26,9.26,0,0,1,18.33-.09v0A10,10,0,0,1,194.93,160.48Z"/></svg>