<svg id="Capa_1" data-name="Capa 1" xmlns="http://www.w3.org/2000/svg" viewBox="0 0 149.37 31.27"><title>flechaYo</title><path d="M147.85,21.45c-2.11-4.33-4.29-8.64-6.43-13-.43-.87-1.72-.11-1.3.75l3.94,7.93c1.43,2.89,5.3,7.44,1.1,10-1.83,1.13-6.39.89-8.56,1.19l-10.26,1.42c-1,.14-.55,1.58.4,1.45l14.54-2c2.16-.3,6.56-.06,7.8-2.48C150,25,148.58,22.94,147.85,21.45Z"/><path d="M135.19,16.42A148.64,148.64,0,0,0,.38,15.91c-.86.44-.1,1.74.76,1.3a147,147,0,0,1,133.29.51C135.29,18.16,136.05,16.87,135.19,16.42Z"/></svg>