<svg id="Capa_1" data-name="Capa 1" xmlns="http://www.w3.org/2000/svg" viewBox="0 0 80.53 112.88"><defs><style>.cls-1{fill:#fff;}</style></defs><title>mousePointer</title><path class="cls-1" d="M74.31,56.51l-61.43-52a6.07,6.07,0,0,0-9.4,5.09l10,79.89A6.07,6.07,0,0,0,23.55,94l15-15.64L54,106.86a4.86,4.86,0,0,0,6.58,2l4.16-2.25A4.86,4.86,0,0,0,66.71,100L51.28,71.48l21.31-4A6.07,6.07,0,0,0,74.31,56.51Z"/><path d="M58.3,112.88A8.32,8.32,0,0,1,51,108.52L37.8,84.19,25.86,96.59A9.55,9.55,0,0,1,10,89.7L0,9.78V9.57a9.54,9.54,0,0,1,14.79-8l.34.25L76.41,53.74a9.55,9.55,0,0,1-2.9,17.06l-.27.06L56.6,74,69.77,98.34a8.33,8.33,0,0,1-3.36,11.29l-4.16,2.25A8.25,8.25,0,0,1,58.3,112.88ZM39.38,72.51l17.7,32.7a1.37,1.37,0,0,0,1.86.55l4.16-2.25a1.37,1.37,0,0,0,.55-1.86L46,69l25.82-4.9a2.6,2.6,0,0,0,.62-4.64l-.34-.25L10.82,7.29A2.59,2.59,0,0,0,7,9.38l10,79.85v.21a2.59,2.59,0,0,0,4.22,2Z"/></svg>